<mxfile host="app.diagrams.net" modified="2023-12-25T06:26:00.146Z" agent="Mozilla/5.0 (X11; Linux x86_64) AppleWebKit/537.36 (KHTML, like Gecko) Chrome/120.0.0.0 Safari/537.36" etag="z42U9HfqeF4ApBQheREn" version="22.1.11" type="github">
  <diagram id="f106602c-feb2-e66a-4537-3a34d633f6aa" name="Page-1">
    <mxGraphModel dx="1364" dy="1740" grid="1" gridSize="10" guides="1" tooltips="1" connect="1" arrows="1" fold="1" page="1" pageScale="1" pageWidth="1169" pageHeight="827" background="none" math="0" shadow="0">
      <root>
        <mxCell id="0" />
        <mxCell id="1" parent="0" />
        <mxCell id="14" value="&lt;b&gt;Google &lt;/b&gt;Cloud Platform" style="fillColor=#F6F6F6;strokeColor=none;shadow=0;gradientColor=none;fontSize=14;align=left;spacing=10;fontColor=#717171;9E9E9E;verticalAlign=top;spacingTop=-4;fontStyle=0;spacingLeft=40;html=1;container=0;" parent="1" vertex="1">
          <mxGeometry x="320" y="-90" width="710" height="570" as="geometry" />
        </mxCell>
        <mxCell id="2" value="Architecture: Secondhand boats data &amp;gt; Data Warehouse &amp;gt; Analytics" style="fillColor=#4DA1F5;strokeColor=none;shadow=1;gradientColor=none;fontSize=14;align=left;spacingLeft=50;fontColor=#ffffff;html=1;" parent="1" vertex="1">
          <mxGeometry x="320" y="-140" width="710" height="40" as="geometry" />
        </mxCell>
        <mxCell id="15" value="" style="shape=mxgraph.gcp2.google_cloud_platform;fillColor=#F6F6F6;strokeColor=none;shadow=0;gradientColor=none;" parent="1" vertex="1">
          <mxGeometry x="340" y="-80" width="23" height="20" as="geometry">
            <mxPoint x="20" y="10" as="offset" />
          </mxGeometry>
        </mxCell>
        <mxCell id="3eX0JZM85urcmLpb5Tb1-731" value="" style="group;movable=1;resizable=1;rotatable=1;deletable=1;editable=1;locked=0;connectable=1;" parent="1" vertex="1" connectable="0">
          <mxGeometry x="330" y="-10" width="700" height="491" as="geometry" />
        </mxCell>
        <mxCell id="3eX0JZM85urcmLpb5Tb1-723" value="" style="rounded=0;whiteSpace=wrap;html=1;movable=1;resizable=1;rotatable=1;deletable=1;editable=1;locked=0;connectable=1;" parent="3eX0JZM85urcmLpb5Tb1-731" vertex="1">
          <mxGeometry width="700" height="463.1700288184438" as="geometry" />
        </mxCell>
        <mxCell id="3eX0JZM85urcmLpb5Tb1-724" value="Compute&#xa;Engine" style="sketch=0;html=1;verticalAlign=top;labelPosition=center;verticalLabelPosition=bottom;align=center;spacingTop=-6;fontSize=11;fontStyle=1;fontColor=#999999;shape=image;aspect=fixed;imageAspect=0;image=data:image/svg+xml,PHN2ZyB4bWxucz0iaHR0cDovL3d3dy53My5vcmcvMjAwMC9zdmciIHhtbG5zOnY9Imh0dHBzOi8vdmVjdGEuaW8vbmFubyIgd2lkdGg9IjIwIiBoZWlnaHQ9IjIwIiB2aWV3Qm94PSIwIDAgMjAgMjAiPiYjeGE7CTxzdHlsZSB0eXBlPSJ0ZXh0L2NzcyI+JiN4YTsJLnN0MHtmaWxsOiM0Mjg1ZjQ7fSYjeGE7CS5zdDF7ZmlsbDojNjY5ZGY2O30mI3hhOwkuc3Qye2ZpbGw6I2FlY2JmYTt9JiN4YTsJPC9zdHlsZT4mI3hhOwk8cGF0aCBjbGFzcz0ic3QyIiBkPSJNNyA3aDZ2Nkg3eiIvPiYjeGE7CTxwYXRoIGNsYXNzPSJzdDEiIGQ9Ik05IDBoMnY0SDl6TTUgMGgydjRINXptOCAwaDJ2NGgtMnoiLz4mI3hhOwk8cGF0aCBjbGFzcz0ic3QwIiBkPSJNOSAxNmgydjRIOXptLTQgMGgydjRINXptOCAwaDJ2NGgtMnptMy01VjloNHYyem0wIDR2LTJoNHYyem0wLThWNWg0djJ6Ii8+JiN4YTsJPHBhdGggY2xhc3M9InN0MSIgZD0iTTAgMTFWOWg0djJ6bTAgNHYtMmg0djJ6bTAtOFY1aDR2MnoiLz4mI3hhOwk8cGF0aCBjbGFzcz0ic3QyIiBkPSJNMyAzdjE0aDE0VjN6bTEyIDEySDVWNWgxMHoiLz4mI3hhOwk8cGF0aCBjbGFzcz0ic3QxIiBkPSJNMTAgMTBsLTMgM2g2eiIvPiYjeGE7CTxwYXRoIGNsYXNzPSJzdDAiIGQ9Ik0xMyA3bC0zIDMgMyAzeiIvPiYjeGE7PC9zdmc+;" parent="3eX0JZM85urcmLpb5Tb1-731" vertex="1">
          <mxGeometry x="298.25" width="60" height="60" as="geometry" />
        </mxCell>
        <mxCell id="3eX0JZM85urcmLpb5Tb1-728" value="Astro/ Docker" style="text;html=1;strokeColor=none;fillColor=none;align=center;verticalAlign=middle;whiteSpace=wrap;rounded=0;movable=1;resizable=1;rotatable=1;deletable=1;editable=1;locked=0;connectable=1;" parent="3eX0JZM85urcmLpb5Tb1-731" vertex="1">
          <mxGeometry x="173.02395833333335" y="158.15561959654178" width="121.52777777777777" height="72.01729106628243" as="geometry" />
        </mxCell>
        <mxCell id="3eX0JZM85urcmLpb5Tb1-734" value="" style="rounded=0;whiteSpace=wrap;html=1;" parent="3eX0JZM85urcmLpb5Tb1-731" vertex="1">
          <mxGeometry y="107.67" width="660" height="342.33" as="geometry" />
        </mxCell>
        <mxCell id="3eX0JZM85urcmLpb5Tb1-735" value="" style="image;sketch=0;aspect=fixed;html=1;points=[];align=center;fontSize=12;image=img/lib/mscae/Docker.svg;" parent="3eX0JZM85urcmLpb5Tb1-731" vertex="1">
          <mxGeometry x="291.65999999999997" y="120" width="73.17" height="60" as="geometry" />
        </mxCell>
        <mxCell id="3eX0JZM85urcmLpb5Tb1-759" value="" style="group" parent="3eX0JZM85urcmLpb5Tb1-731" vertex="1" connectable="0">
          <mxGeometry y="210" width="640" height="220" as="geometry" />
        </mxCell>
        <mxCell id="3eX0JZM85urcmLpb5Tb1-736" value="" style="rounded=0;whiteSpace=wrap;html=1;" parent="3eX0JZM85urcmLpb5Tb1-759" vertex="1">
          <mxGeometry width="640" height="220" as="geometry" />
        </mxCell>
        <mxCell id="3eX0JZM85urcmLpb5Tb1-739" value="" style="group" parent="3eX0JZM85urcmLpb5Tb1-759" vertex="1" connectable="0">
          <mxGeometry x="18.889142857142858" y="69.0344827586207" width="72.53942857142857" height="68.2758620689655" as="geometry" />
        </mxCell>
        <mxCell id="3eX0JZM85urcmLpb5Tb1-719" value="" style="sketch=0;html=1;aspect=fixed;strokeColor=none;shadow=0;fillColor=#3B8DF1;verticalAlign=top;labelPosition=center;verticalLabelPosition=bottom;shape=mxgraph.gcp2.website" parent="3eX0JZM85urcmLpb5Tb1-739" vertex="1">
          <mxGeometry width="20.869223789870688" height="20.24336637931034" as="geometry" />
        </mxCell>
        <mxCell id="3eX0JZM85urcmLpb5Tb1-720" value="Autot.tori.fi" style="text;html=1;strokeColor=none;fillColor=none;align=center;verticalAlign=middle;whiteSpace=wrap;rounded=0;" parent="3eX0JZM85urcmLpb5Tb1-739" vertex="1">
          <mxGeometry x="12.671999999999999" y="46.772758620689665" width="35.18200399551947" height="12.80172413793103" as="geometry" />
        </mxCell>
        <mxCell id="3eX0JZM85urcmLpb5Tb1-751" value="save to local" style="text;html=1;strokeColor=none;fillColor=none;align=center;verticalAlign=middle;whiteSpace=wrap;rounded=0;" parent="3eX0JZM85urcmLpb5Tb1-759" vertex="1">
          <mxGeometry x="100.57142857142857" y="110.82689655172412" width="73.14285714285714" height="22.75862068965517" as="geometry" />
        </mxCell>
        <mxCell id="3eX0JZM85urcmLpb5Tb1-754" value="Cloud&#xa;Storage" style="sketch=0;html=1;verticalAlign=top;labelPosition=center;verticalLabelPosition=bottom;align=center;spacingTop=-6;fontSize=11;fontStyle=1;fontColor=#999999;shape=image;aspect=fixed;imageAspect=0;image=data:image/svg+xml,PHN2ZyB4bWxucz0iaHR0cDovL3d3dy53My5vcmcvMjAwMC9zdmciIHhtbG5zOnY9Imh0dHBzOi8vdmVjdGEuaW8vbmFubyIgd2lkdGg9IjIwIiBoZWlnaHQ9IjE2IiB2aWV3Qm94PSIwIDAgMjAgMTYiPiYjeGE7CTxzdHlsZSB0eXBlPSJ0ZXh0L2NzcyI+JiN4YTsJLnN0MHtmaWxsOiM0Mjg1ZjQ7fSYjeGE7CS5zdDF7ZmlsbDojNjY5ZGY2O30mI3hhOwkuc3Qye2ZpbGw6I2FlY2JmYTt9JiN4YTsJLnN0M3tmaWxsOiNmZmY7fSYjeGE7CTwvc3R5bGU+JiN4YTsJPHBhdGggY2xhc3M9InN0MiIgZD0iTTAgMGgyMHY3SDB6Ii8+JiN4YTsJPHBhdGggY2xhc3M9InN0MSIgZD0iTTE4IDBoMnY3aC0yeiIvPiYjeGE7CTxwYXRoIGNsYXNzPSJzdDAiIGQ9Ik0xOCA3bDItN2gtMnoiLz4mI3hhOwk8cGF0aCBjbGFzcz0ic3QxIiBkPSJNMCAwaDJ2N0gweiIvPiYjeGE7CTxnIGNsYXNzPSJzdDMiPiYjeGE7CQk8cGF0aCBkPSJNNCAzaDZ2MUg0eiIvPiYjeGE7CQk8cmVjdCB4PSIxMyIgeT0iMiIgd2lkdGg9IjMiIGhlaWdodD0iMyIgcng9IjEuNSIvPiYjeGE7CTwvZz4mI3hhOwk8cGF0aCBjbGFzcz0ic3QyIiBkPSJNMCA5aDIwdjdIMHoiLz4mI3hhOwk8cGF0aCBjbGFzcz0ic3QxIiBkPSJNMTggOWgydjdoLTJ6Ii8+JiN4YTsJPHBhdGggY2xhc3M9InN0MCIgZD0iTTE4IDE2bDItN2gtMnoiLz4mI3hhOwk8cGF0aCBjbGFzcz0ic3QxIiBkPSJNMCA5aDJ2N0gweiIvPiYjeGE7CTxnIGNsYXNzPSJzdDMiPiYjeGE7CQk8cGF0aCBkPSJNNCAxMmg2djFINHoiLz4mI3hhOwkJPHJlY3QgeD0iMTMiIHk9IjExIiB3aWR0aD0iMyIgaGVpZ2h0PSIzIiByeD0iMS41Ii8+JiN4YTsJPC9nPiYjeGE7PC9zdmc+;" parent="3eX0JZM85urcmLpb5Tb1-759" vertex="1">
          <mxGeometry x="256" y="76.6206896551724" width="25.614382132777028" height="20.73545220272426" as="geometry" />
        </mxCell>
        <mxCell id="3eX0JZM85urcmLpb5Tb1-758" value="BigQuery" style="text;html=1;strokeColor=none;fillColor=none;align=center;verticalAlign=middle;whiteSpace=wrap;rounded=0;" parent="3eX0JZM85urcmLpb5Tb1-759" vertex="1">
          <mxGeometry x="365.71428571428567" y="122.13793103448275" width="73.14285714285714" height="22.75862068965517" as="geometry" />
        </mxCell>
        <mxCell id="3eX0JZM85urcmLpb5Tb1-737" value="" style="shape=image;verticalLabelPosition=bottom;verticalAlign=top;imageAspect=0;aspect=fixed;image=data:image/png,iVBORw0KGgoAAAANSUhEUgAAArwAAAK8CAYAAAANumxDAAAACXBIWXMAACxLAAAsSwGlPZapAAAAAXNSR0IArs4c6QAAAARnQU1BAACxjwv8YQUAAGDvSURBVHgB7d17fF1neej5591bN1u+SLETQxLibUMbAnZsBUhsKIltwClMB+wEQg/9TGJn5vQz53Noc5lpy61jOZTQnk7BaZmh7R9Yzuk0DE1i0zkktDSxwpmh5nJipSeHO3g71+Yq+SJZ0t57vbPeJW1HliXt27q8612/LwjL9s6FxLZ+evys9xUBAAAAAAAAAAAAAAAAAAAAAAAAACAkqpEXP/OOwkbJy0bzvhYpLvTatgW+//VHikUBAAAAYlBX8D63ee1tnuh+/90eidBcEa2UjPjfMXLOt4n/daXO+TbP847P/HpeybCn5cR8f25VkZF8furPO94lI2sGiyMCAAAAe2i/4Iae6JGx9h1+7RWCb1PqmKjSY7K5r1jvn6Zm8D77zrV7tA5iNzNmxrE69/2zoR3EtPZGZr7G8+NcTcf5zKBmog0AANCgIz/z/2f8NvGk3++v2UNXP9fUXtn81r31/KkWDN4sxm7ERrTIOZFcjejZAT0znqvrIYQzAADIhB/8REmp/BW/a3fVeOVR2bzuqhqvmT94j20p9LRNqKP+CwoCq+jXYnnqS6WK1WCurnKcfY0/aS51S5GVDQAAkAr1x+4UT++Vd63vX+gl8wbvU5sLO3KiDgpcEkyY5wrlmVNlM1FmrxkAAMTu6DGRybF+P2L3NPBHDUtXaa309c3bLW3zfYcfPhsbO8MBKdCjph48LJivaK2n/hWrqX/RueB9kYr/RfuEyDOb1wTT5HMC2fOOz5wiM0EGAAChaC52jR4Zze/wvxyY7wVtAixgeqXFvE0Fsh/H3vR3BJnctnAcm68TxgAAYEHNx66h/PAoLPSChSa8I0x40Yi54nj62+cMY/PAnifqeF68Y2WR49V1Ch7OAwAgQ1qL3brMG7ylRTLgB8oXBQhZNYx18L72J8bqnHWK86JY6yfMGkVFyxNmUnzp94tDAgAA0i+G2DUWnOE+vbmwz58R3yaAfcxqxBBBDABASoUZuzVOalhwh7fcKf3tk3Kd6KnrhAGLmIfvtgRTYqV2eDL97F3b1ITY/1RuyNzQp0U9UV2ZyJWlSAwDAGCBmCa7VTW3dM15vO2T6jDRC1dU1yWqMcxkGACAGIUfu1oq3q3ya1cOzPeCuh5LI3qRGf5kWGkpmofptHiD5kG6cpcMcboEAAAhiGayG07wGkQvMi7YGZ45FSaEAQBoQHRrDOEFb9VTmwoDOaVuEQDG2RCuToTfcKQ4KAAA4DVPPikyKrvEk/0SvvCD1yB6gRqqqxFaP+F/bZBpMAAgs6KNXSOa4DWIXqBh50yDOTUCAOC86GPXiC54DaIXaBkRDABwUzyxa0QbvAbRC4RuKoK1fkwrGap0yiDrEACAVIkvdg1/bqR2yqa3fn2+F7QcvMbTmwr9SqlYDg4GssicHZwLbpbTg+aECB6MAwBYy8TuiVKf5Nofl3hoKett8u71g/O9IJTgNYheIHaD1VUIpsAAACtUY1e1PepPXXskHvEFr0H0AgkyJ0OIGsopb1Aq8tjrjxSLAgBAXJKJXSPe4DWIXsAO1TWIXE4fqkzKEzwMBwCITHKxa8QfvAbRC9gnCGClBpkAAwBClWzsGskEr0H0AnarBnBFe19nBxgA0BTtfzQ5MrRGdNvjCcVu8HeRWPAaRC+QIsochaYeE+0d4hQIAEBN1diV9kf9rxUkOVrycpVcvW7e1b1Ig9cgeoFUGvF/cRg0+7+sPwAAzmNP7AZ/NyKltbK5rzjfCyIPXoPoBVKO6S8AoMqu2DXsCF6D6AWcMeL/XD5kHn4bb5evs/sLABliX+wa9gSv8czmwu3+X/KLAsAlg/mcHmD1AQAcZ2fsGnYFr/HUpsKunFJx3KsMIG5KhnJaDygtXyd+AcAh9sauYV/wGkQvkAHELwC4we7YNbRsXpdb6AWJBK9B9AIZQvwCQDrZH7uGvcFrEL1ABvnxm1d6Hzu/AGC5dMSuYXfwGs+8o7BR2tRh/92kbucAkJzggTdOewAAy5jYHXqiV8bbHhe7Y9ewP3gNoheAUmrA87wDnPMLAAkLYnfIj91gsrtR7JeO4DWIXgCG/8tsMafUYM7z9rLyAAAxS1/sGsN+8F6w0AusCV6D6AUwS7Dy8Pr/r3hAAADRSmfs+vQx2bx+7UKvsCp4DaIXwGxMfQEgYqmNXSOFwWs8v6lQKCt1WNm/JA0gfkx9ASBsj/9YyUTZPKCWstg1Uhq8BtELYCFMfQEgJD/4iZJS+Sv+r6y7JJVqB++CT7QlyXwAa9N6q/mgJgAwi/lkWGu9q6LUsWffuXb/05sKWwQA0JjUx66hirVeYW3wGkQvgHqY8FX+7wg9vXnNseffVbhFAAC1ORG79bF2pWEm1hsANMJ8ktyW0/3c5gYA83Ardg/L5nXbFnqB1RPeKia9ABphPjmueGrAfKJs1h3MJ80CAJjynSeVlEtfyMJktyoVwWsQvQAaNXvPl/AFkHlHj4nk1R7/t8JulwxJTfAaRC+AZhG+ADLPxO7kWL94eo+4pVjrBakKXoPoBdAKwhdAJrkbu3VJXfAaRC+AVhG+ADIj47FrpDJ4jWr0ipIhAYAmEb4AnJaF2NVyotZLUhu8honeUgfRC6B1hC8A52Rlsqu128FrrBksjhC9AMIyI3z3EL4AUos1hnOkPngNohdA2Pzw7Tfn+HJzG4DUyVbs6um3BTkRvAbRCyBs1QssuLIYQGpkcbKr1EitlzgTvIaJ3ku/c6zP0/qAAEBIquHLfi8Aq2V1jcHz3N/hnctlR4q7iF4AYZu533tsS6FHAMAWTz7px+7oLnZ25+Zk8BpEL4ComP3etgl1lDUHAFYwsTsqfuzKfsmm7OzwzoXoBRAV1hwAWIHY9XNXHa/1EqeD1yB6AURpes3hqFlzEACIE7FbN+eD1zDR639Q2isAEI0es+YQnObAtBdAHIjdhmQieI03HCn2E70AohSsOUw/1CYAEBUTuydKfcRu/ZRkzNObCv1KKT4YAYiUFim2ab3VXIEuABCWauyqtkdFKU6LCX65La2VzX3FhV6UmQlvFZNeAHFg2gsgdMRu0zI34a1i0gsgLkx7AbSM2J0PE96FMOkFEJfpaS/n9gJoDrG7sBqxa2Q2eA2iF0CMeqrn9nJLG4C6aX+Aeaq0RnLtDxK7zct08BpEL4A4mXN7g1vaOL4MQC0mdo8MrRFpf9T/WkHQtMwHr0H0AohT9YG2ZzYXbhcAmAuxW6+Rel5E8E4jegHET33xmc1rvygAMBOx2wBdV/Bm9pSG+Ty1qbArpxQHOQOIDac4ADiL2G2QPiab16+t9SomvLNcdqQ44Gm9WwAgJmbFoazU4WfeUdgoALKL2G2CKtbzKoJ3DkQvgLiZ6JU2dZSLKoCMInYjRfDOg+gFkAStdT/RC2QMsRs5gncBRC+AJATRu3nNQc7rBTKA2G2N1ifqeRnBW4OJXinrPqnz2AsACIP/IXAH5/UCjiN2W6fUcD0vI3jrcOn3i0N+9G4VohdAjKoPsxG9gINM7A490UvsxoPgrRPRCyAJnOAAOCiI3aFeGW8jdlvl6afqeRnB2wCiF0ASpk9wIHoBF5yN3WCyy8/pmBC8DSJ6ASSkxxxb9vy73niLAEgnYjdsevqtJoK3CSZ681r3mduRBABiVPG8AaIXSCFiNxpaH6/nZQRvk8wVoOYqUKIXQNyIXiCFjv5EEbuRYMIbNaIXQFKIXiBFfuDH7kTlK0Lshk8rJrxxIHoBJMVE7ysfuJJb2QCbmdgtlf3Y1bsEiSF4Q0D0AkjKxKmx/tFd24hewEbErjUI3pAQvQCS4JUrcuIXT/VP/PYHiF7AJsRuPNrKxXpeRvCGiOgFkAQTva/+9JdEL2CL7zyppFz6ArFrD4I3ZEQvgCRUJiaC6C397g6iF0jS0WMiebVHtNwuiF5XffciELwRIHoBJMFE78lfPtWvf/8mohdIgondybF+8TQ/B+PS10fwJonoBZCEM68My6njzxG9QNyIXasRvBEy0Vvu1H2iZEgAICYnn3pWxl54megF4kLsJkQX630lwRuxNYPFkVKH3kr0AojTiV8+JZUzk0QvEDViNxUI3hgQvQDiZk5ueOm//lh0qUL0AlEhdhOmivW+kuCNCdELIG7BQ2xPPWeu3vSj96NfFADhIXZTheCNEdELIG6nn/tXGXvxJTFHJOnf++h+AdA6YtcOWp+o96UEb8xM9F76nWN9ntYHBABiEOzzjk+Yd3cRvUCLiF17KDVc70sJ3oRcdqS4i+gFEAezzzv8s2PVrxK9QLOIXbtoYcKbBkQvgLhMnDgpo8/9a/WrRC/QqCef9GN3dBexaw0tWtd16YRB8CaM6AUQF3M+7/Rqg+FH701H9e07egTAwkzsjoofu8InijZRiuBNExO9/qcp9wgARGjWaoNPbZT2jkeJXmABxK69tMdKQ9q84Z+Lt2ut9woARMisNkycODXjW1Qf0QvMg9i1Wz7PQ2tp9IYjxX6iF0DUhn/6S9Hl8oxvIXqB8xC79isx4U0tohdA1MyFFKeee2HWtxK9wFkmdk+U+qSiubDFEQSvhYheAFEzJzbMeIBtmonezsf1J36zIEBWVWNXtT0qSvEJoM3aysV6X0rwWoroBRAl8wDbyaefneu71vhTrUeJXmQSsZsuXcIpDS4gegFEaeyFl2c9wHYW0YvsIXbTp6+P4HUF0QsgSqeeena+7yJ6kR3EbhrVHbsGwZsCRC+AqJx/TNk5iF64T2v/M7/SGsm1P0jspgrB6yKiF0BUFpjyGkQv3GVi98jQGpH2R/2vFQTpoQleZxG9AKJQY8prEL1wD7GbborgdZqJXk/r3QIAIaox5TWIXriD2E0/reu+dMIgeFPosiPFAaIXQJjqmPIaRC/Sj9h1g1J1XytsELwpRfQCCNvYiy/V8zKiF+lF7LrD00818nKCN8WIXgBhMufy6nK5npea6H1c/95HNgqQFsSuS/T0W90I3pQjegGE6dRzL9T70l7/Q8ijRC9Sgdh1kD7eyKsJXgeY6JWy7pMGz6QDgNlGn/vXRl5O9MJ+xK6b8nl2eLPo0u8Xh/zo3SpEL4AWeOVKPQ+vzUT0wl7ErrtKHqc0ZBXRCyAMdRxRNhvRC/uY2B16opfYdVRnjnN4s4zoBdAqc0RZnQ+vzWSi93H9+zfdIkDSgtgd6pXxNmLXVZVJgjfrqtHr/3QvCgA0oYGH12ZSotV+oheJOhu7wWSX33Vw1ea+YiMvJ3gdZaK3TRO9AJpjjihrEtGL5BC7mAfB67DXHykWiV4AzahMTDT68NpMRC/iR+xmiC5KgwhexxG9AJpldnlbQPQiXt//b8qP3QeF2M0AVZQGEbwZQPQCaEYLaw1V1ejdI0CUfvATJRX1Ff+9LQLMgeDNCKIXQKNaXGuoMtG7h+hFZEzslsp+7OpdgqwoSoMI3gwhegE0qsW1hiqiF9EgdrNJS0OXThgEb8YQvQAaMdn6hLeK6EW4iN2s0qJ1w3cNELwZRPQCqFeTl1DMh+hFOL7zpJJy6QvEblbp49IggjejiF4A9Rp9seWH12YietGao8dE8mqPP+e7XZBN+fywNIjgzTCiF0A9SqNjEjKiF80xsTs51i+e5sdOlpU8dnjRGBO95U7d53/4GRIAmMP4Kw0PU+pB9KIxxC6q2spFaRDBC1kzWBwpdeitRC+AuXjlij/lHZUIEL2oD7GLmbqEh9bQHKIXwEImwjutYTaiFwsjdjFbXx/Bi+YRvQDmMxld8Bomevv17330KwLMROziPLooTSB4cQ6iF8BcQrqAopbdRC/OInYxJ1WUJhC8OI+J3ku/c6zP0/qAAIBM7fGWxyckBkQviF2EjuDFvC47UtxF9AKomoh2rWEmojfLiF0srChNIHixIKIXQFU5mpMa5kP0ZhGxi4Vp/8dGw7esGQQvaiJ6ARil0TMSMz96b3pc376jR+C+J5/0Y3d0F7GLBSnV8AkNBsGLupjo1aLvEQCZVYp3wjtN9Ul7x6NEr+NM7I6KH7uyX4CF5HhoDRF7wz8Xb9da7xUAmRTjg2uzEL1OI3bRiCauFTYIXjTkDUeK/UQvkF3l0TFJBtHrJGIXjerMsdKAeBC9QHZNJha8xnT0fuI3C4L0+8GzIie9ncQuGtI+WZQmELxoCtELZFNlIomVhpn86K1oojftzGR34sU+/98nJ3GgMU1cK2wQvGga0QtkT+l07Cc1zGUN0ZtiJnZPlPpEtT0qSrGiggY0d62wQfCiJUQvkC2ViXGxBNGbRsQuWtLcCQ0GwYuWEb1AdiR3UsOciN40IXbRKi1NndBgELwIBdELZIeulMUiRG8aELsIR1GaRPAiNEQvkA2TduzxzkT02kxrkVOlNZJrf5DYRQu0/2OpqQfWDIIXoSJ6Afclf1LDnIheG5nYPTK0RqT9Uf9rBQFaoXloDRYx0etpvVsAOMnS4DWIXpsQuwibVselSQQvInHZkeIA0Qu4SZcrYjGi1wbELqLQ5C1rBsGLyBC9gJvK45NiOaI3ScQuotLkLWsGwYtIEb2Ae7yyVac0zMdE7+P69z6yURAfYhfRGWn2ljWD4EXkZkRv0z9QAdjD4h3e2Xr9D3OPEr0xIXYRJd38kWQGwYtYmOiVst4qRC/gBJ2OKa9B9MaB2EXUVGv9QPAiNpd+vzhE9AJuqNj94NpsRG+UiF3EoygtIHgRK6IXcENlwvoH12YjeqNA7CIunn5KWkDwInZEL4CEmOh9XP/+TbcIWmdid+iJXmIXMdCtXDphELxIRDV6dYu/RQEgGeXx1Dy4NpsSrfYTvS0KYneoV8bbiF3EQ6uitIDgRWJM9LZpohdA7IjeVpyN3WCyy4oI4tGpeGgN6fX6I8Ui0Qukj66k5pSG+RC9zSB2kZT2UlFaQPAicUQvkD5euk5pmM909H70dkFtxC6S09KlEwbBCysQvQAS4kevfMGf9O4RLOw7v1Bypu0rQuwibrr1NiB4YQ2iF0BCzKR3D9G7gB/8RElu4iui1A4B4ndcWkTwwipEL5AOKbpeuF5E73xM7JbK/mRX7xIgGUVpEcEL6xC9ABJC9M5G7CJ5fg4w4YWjiF4ACSF6q4hd2CKnjkmLCF5Yi+gFkBCi9ztPKimXvkDswgol74S0iOCF1YheAAnJbvQe9YdpebXH/41kjmuDHZaUh6RFBC+sZ6K33Kn7/A8/Lf+AB4AGZC96TexOjvWLp1npgC1aPoPXIHiRCmsGiyOlDr2V6AUQs+xEL7ELG+lwfoeX4EVqEL0AEuJ+9BK7sJWSlqe7BsGLVCF6ASTERG+//r2PfkVcQ+zCZlqekBAQvEidavQqkUMCIBH5zk7JqN1ORS+xC7uFcgavQfAilUz0XvLPx3Z6Wh8QAIiXG9FL7CINKjqU39EleJFqlx0p7iJ6ASQg/dFL7CINOlUoO7xKAAc8takwkFPqFgEQi6WXXSLL/DfIfilN3Kn2HQrlg3Ispia7e/zY7RfAblo2rwtlOMuEF05g0gvEK8M7vLPtlvaOR/XtO3okDY78TGTi9O3ELlIitE8kCV44w0SvFn2PAECsVF8qovfJJ/2/1YldotUXBUiH0E5kInjhlDf8c/F2rfVeARCpti4mvOeyPHpN7I7KLvFkvwDpUZSQELxwzhuOFPuJXgDxszR6iV2klaefkpAQvHAS0QtEK9fGh4+5TUfvJ36zIDYgdpFeWvK5oxISfsWCs4heIDoq3yaYjx+9FZ189P7gWZGT3k5iF6lV8k5ISAheOI3oBaKRb8sLFrQm0eg1k92JF/v8+HbvKmRkx5IyD60B9SJ6gfCpNia8dUgmek3snij1+f+SHhWl0nFcGnC+Eenr41gyoBFELxAezuBtSLzRS+zCHaFNdw2CF5lB9ALhyDHdbVQ80Uvswi1FCRHBi0wheoHWKfZ3mxFt9BK7cE2IR5IZBC8yh+gFWtPW1SFoSjTRq7XIqdIaybU/SOzCEaEeSWYQvMgkE72e1rsFQMPY4W1JuNFrYvfI0BqR9kf9rxUEcEVOH5cQEbzIrMuOFAeIXqBxOVYaWhVO9BK7cNnV63hoDQgL0Qs0ro0Jbxhai15iFy7T4Z7QYBC8yDyiF2gMZ/CGxkTv4/r3PrKxoT+K2IXrlIR2/m4VwQvIdPSK3ikS/k8ywDX5Th5aC1Gv/6H40bqjl9hFFmh5QkJG8ALTLvvn4iEp661C9AILautipSFk9UUvsYts8H+gS6gPrBkELzDDpd8vDhG9wPw4oSEyC0cvsYssqWh2eIGoEb3A/PJMd6M0Fb3/629uOedbiV1kzZJy6MGrBMCcnnlHYaO0qcP+u00d5P5sz6Xy7PJL/LdLz/n2S048I0vHT8olI8/KsomTAqTJ4lUrpfdX1goipUXp3eo/fO0AsYsMGpbN6y6QkPGoLTAPM+n1o3erblMHVR0faE52LpNDG2+Uf7r8ffKjVW+RU13Lav0hQfhe8cIP5erid+Xq40fkzf/6IyIYVmOlIRZKtNqvf/8mUUNDf+/H7oNC7CI7Qp/uGkx4gRqe31QolJU6PF/0fm/1NfKl627zv9wkYTDhu/OJB/wIPuJPg58VwCYrrvgV6VrRK4ieeXLndzdcX/zSG68uCJAVWvbJO9fdISEjeIE6zBW9ZqL7pS23yb1XR3eEbzV+3/PjbzH5hRVWrr9COpcvFcTDRO8Nm26SQxdfLkAGaP8/d/rBu09CRvACdZoZvWY39+ab7wv2dOOy84n75eOP3cPUF4m6eNNVXDwRs+H2LrnqPf9WioubepwASBMtZb1N3r1+UEJG8AINMNF79JKNh//H3zpQqGdHNwpm6mvC9+rj3xUgTrm2vLx+09sE8Tu8crVsu/ZmARynpat0gfT1hX5KEsELNKD7G3qjUtL0yQ1humTkGfn4t+8JVh6AOHQsXyYXrn+zIH5mtWH32z4oB1ZvEMBhkZzQYHAOL1Cnrod1wf8U8aBYELuGWaf45Af/VN7zO9+WRy5/nwBR6+heJEiGmU7t+dG3BXBcJCc0GAQvUAcTu3kth5WFRwOZ8P33N/2V//aXwbm/QFS4dCJZhbER2fJSUQBnaXlCIkLwAjXYHLszPXL5dnnP7/5nf+r7HwhfRKK9u1uQHDPlvfl4ZD0AJE1LTg1KRAheYAFpid2ZDm74cHCCxMENNwoQplwbHzKStuP5nwrgrJw+LhHhoTVgHmmM3dnMg2333vtvOMoMLeOEBjuYh9fW/vrvcEQZXKRl87rIPqvm03VgDi7ErmH2e82ag7kJDmhFG+sM1tgw8oIAztHRPbBmELzALK7E7kxfuva24DQHdnvRLE5osMeasdCPKAVsENk6g0HwAjO4GLtVTHvRCk5osIPZQ+wpjQvgGLOt85hEiOAFprkcuzOZae/NN/8t0140hBMaAESqollpAKKWldit+t7qTcFJDv/EhRWoEysNACK1pEzwAlHqOah78pM6M7FbZVYcPn7TX7HigJrMdFe1tQkAREMXpa8v0uV0gheZZmK33OFPdttVQTLKrDjs+Lf/iRUHzKutq0NgB7PoONLeJYBbVFEiRvAis6qxK0o2Ssb9+HVvCVYcfrTqCgFm61i+VGCPY5zBC9d4+tsSMYIXmUTsns+sOOz87W+w4oDz8MCaXU60c2IGnKIlnzsqESN4kTnE7sLMisPd2z8jQBUPrNllqOd1AjhFTz4hESN4kTnlTtlP7C7s3mtuZa8XAR5Ys0tx8XJ2eOGaEdncV5SIEbzIlO6H9X7/ix2Cmqp7vURvtvHAml2eYLoL90R6HFkVwYvMMLGrtOwS1M3s9fIwW7bxwJo9gquoVq4WwCkxPLBmELzIBGK3edWH2Q5uuFGQPTywZpfBCwleOCWWB9YMghfOI3bD8ckP/iknOGRQJxNea5j93aHlrDTAMTE8sGbwJAKctuQh/UUhdkNjTnAwPv7YPQL3dSxfJrDH4MqCAG7RxTgeWDOY8MJZSx7We/wvbheEykQvk95s4Dgye5j93XtXXymAU7SKZbprELxwUhC7WvoFkTDR+8kP/geB2zqZ8FrDrDMMXlgQwCHBc5gSE4IXziF243Fww4fl39/0l3KykyhyFfu79mCdAU6q6FiOJDMIXjiF2I3XI5dvl5tv/lui10FcOGEPMwa76y3XCuCcJWWCF2gUsZuMqQsqiF7XtC9hf9cWgytXS3FxjwBO0TIkfX0jEhOCF04gdpNF9LqHdQY7mOnugdUbBHCOktimuwbBi9Qjdu1A9Lqlcxn/Hm1gHlYjeOEg7RdobA+sGQQvUo3YtQvR64Z8Z6fkuzoFyTLT3b1XXCeAk5TEdiSZQfAitYhdOxG96dfZwzqDDcx09+sXXy6Ag0bk6nWsNAC1LP56hdi1mInej3/0LwXpxP6uHe5dvUFG2rsEcFCssWsQvEid7of0Lbn2XL/Aat9bvYnLKVKK/d3kHfOnuwPs7sJN2v/P30vMCF6kioldJTIgSAVzOQXRmy7m/F32d5NV3d3lKDI4K8YLJ6ryAqQEsZtOZr1B/H9xVx//rsB+XRcsl0UregXJMbu7t779QwI4613rd0vMmPAiFYjddPvStbfJl667TWC/RRcQu0niZAZkwKAkgOCF9ZY+pHcQu+lnovfANbF/Uo8G8cBasoaWv45zd+E2He9xZFUEL6zW/Q290Z947Bc44fPb/1AObrhRYKeO5ctEtbUJkmGmuzds/ogADtOSU4OSAIIX1jKxq5Qc9t/lyQ2H3O1H749WXSGwT0f3IkFy7nnTNTyoBvd1TsZ6w1oVwQsrEbvuOtW1TD5+01/Js8svEdila8UFgmSYY8j2XnGtAE7TMiR9fSOSAIIX1iF23fdsz6Vy8833Eb0WybXl2d9NSPVBNS6ZQAYkMt01CF5YhdjNDhO9/96f9HIFsR06l/PvISkDl23gQTVkQWL7uwbBC2t0PawLouSgELuZYc7o/fz1nxEkr2sFP+2SYFYZ7noLqwzIiIT2dw0unoAVTOzmtRxWIgVBpnAxhR161qyWHCc0xMqsMtxx5fXy2IUFAZxn9nev3nCPJIQJLxJH7MKc0ctxZcnhOuFksMqAjElsumsQvEgUsYsqjitLTufyJYJ4mVWGOzdsFyAjtFT01yVBBC8SQ+xiJo4rSw7HkcXLrDJsu/ZmTmVAtiwpD0mCCF4kgtjFXDi5IX75zk6OI4vZXVdcywUTyJrBpM7frSJ4ETtiFwsxD7F96brfFcSjs4fYjdPB118u/VdcJ0CmePrbkjCCF7EidlGPe6+5VQ5cs1sQvUUX9Ariwd4uMkqL5094E0bwIjbELhrx+e1/KN9bfY0gWqwzxKO6t8sqAzJoRN69flASRvAiFsQumvHJD/4pD7FFqGP5MlGcvRs5E7t3Xnk9sYts0skeR1ZF8CJyPQd1T5snB4ldNKr6EBui0b1qhSB65iG1fW+6WoAM0pKXQ2IBgheRMrFb7pDDomSjAE0wD7HdvZ3rh6PQuYzTMKJ2dPkqHlJDtnklJrxwG7GLsJiH2LiJLVxmnYHb1aJlHlK7YfNNAmSXLsrmvqJYgOBFJIhdhM3cxMY+b3gWrWCfNErD7Z08pAaIGhRLELwIHbGLKJib2G6++T4upQgJx5FFxzykdsOmjxK7yDotZX2vWILgRejKnbKf2EUUzENsXErRuvbubtYZIlI9kWHwwtUCZJ4Fx5FVEbwIVffDer//xQ4BIsI+b+sWczpDZDiRAThrUCxC8CI0JnaVll0CRIx93tZw2UQ09vqxy4kMQED7hXlALELwIhTELuJk9nk5n7c5+c7OYKUB4RpYvYHYBWay5DiyqrwALSJ2kYSXl1woJ7uWyrt/8W1B/bpXrZSuXh6mCpM5a/cD7/qYAJimZUjeueFPxCJMeNGS7kOVLxK7SIrZ5/3e6msE9VvsBy/CY2LXHD8G4BxWTXcNghdNW/Kw3qM6crcLkKBPfvBPOaqsTqwzhKt6scRIe5cAOEtLRX9dLEPwoikmdv0f0v0CJMwcVfbxj/6loDamu+ExscvFEsBcdNGm48iqCF40jNiFbb63epMcuGa3YGHdFxG8YSB2gYXYc7vaTAQvGkLswlZfuvY2jipbAJdNhIPYBRZk1e1qMxG8qBuxC5uZo8o++aE/FcyNyyZaR+wCNY3YuM5gELyoC7GLNDCrDV+67jbB+RZd0CtoHrEL1OWQWIrgRU3ELtLErDb8aNUVgtd0LF/GOkMLiF2gLlqUsu50hiqCFwsidpFGH7/prziqbIZu1hmaRuwCdRuRTW8leJE+xC7SyhxV9qXrflcwpXMZ8d+M6qUSxC5QF2vXGQyCF3Pq/qa+jdhFmnEL25RFK3pZZ2gCsQs0xOp1BoPgxXm6H9K3KE/2CZBy3MIm0rWCYGvUwOoNQexygxpQN6vXGQyCF+cIYtf/9V4AB2R9tSHXlpfFF10oqJ+J3d1v+yCxCzTG6nUGg+DFWcQuXJTl1YauFRxF1oi9V1wbxC6Ahli/zmAQvAgQu3DZ3dv/ULKI6W79TOz2X3GdAGiY9esMBsELWfx/l3cQu3DZj1/3lsxdSJHv7JTO5UsFC9P+m5nqErtA06xfZzAI3ozr/obemFua3y+A4w5cvVueXX6JZMUiHlarabi9U67a9m+DvV0ATdFS1vdKChC8GWZiVyk57L/LR0Y471TXMvnkh/5UsmLJxa8TzM9cKHHVe35bhnr45wQ0Txfl3esHJQUI3owidpFF31u9SQ5cs1tcx1XCC+OMXSAsalBSguDNIGIXWfala29zfrWBq4TnVz1jl9gFWqYlL38uKUHwZkz7/kliF5lmVhvuvt7tUxsWXcBxZHOpHjvGGbtACLQMydXrhiQlCN4M6XpYFzpWtR8UYhcZ98jl2509m3fxqpWi2toErzEPp3ESAxAqM929R1KE4M0IE7t5LYeVSEEAOHvtMGfvnss8nLbt3TdzEgMQNq/0mKRIXuA8Yhc4n1lt6KxMyNXHvyuuMGfv9qy9TDDl8MrVcsPmm+THS1cKgBBp+bq8c8NfSYow4XUcsQvMz7UH2JZcskowZd+bruHhNCAaWnJqQFKG4HUYsQvU5tLZvDysNrWve8eV1/tv2wVAFHQxDVcJz0bwOorYBepjzub9p8vfJ2m3aEVv5s/ere7r7nvT1QIgKuk5e3cmHuV1UBpjV5d18Ba8P+FNf5v/ZUWf91pv+vuNXOccn7Pllai2qW9X5kd4fur9XBef32Fun9/+h3J18buybOKkpNXii7K9p3rw9ZfLrW/nyDEgYv4H5dJdkkIEr2Nsi90gZCcq4o17oie94EsJvs07G656RsDGQfmRrIIoVsH70jb1voln1ZkPInnqSyXIhmd7LpV7N+2Wjz+WqlN2zjIPq3WtyOY6g/mU+M4rr2eqC8RjUDb3FSWFCF6HJBm7JmS9kyXR/kTWO+0H7mglCNzq1NYmJrDr+bsKgrgjN/Vldz6YEJuvB18SxM4xD7DtHLpfLjnxrKRNZ89SySKzwnDr2z4kgxeuFgCR05KTA5JSfMR2RJyx642Wg6Ct+G/eibK1YRu1YCq8OH82hnOL24LpcK6bzyPT6urjR+Teez8mafO6t2/I3P6uOXLMrDBwCgMQF31MNq9fKynFR2YH9BzUPWVPDvqfvhQkZCZkTeCWX/WntyZwxyqZjNu5mH8OlZNlEfM2w1whnOtmIpwG5gE2cwNbms7m7Vi+LFOxywoDkJR0PqxWxUfglAtit0MO+/8mN0pIKidK4vkRV/Gnt5VZMYfmmX3hfPdUCOeXtRPBlrpk5Bk5+Ne/kZoH2Hp/dU1mbldjhQFIjHlYbW1a93cNblpLsbBiN5hUvjwppecmZPIXY1J+YTII3bgfJnOe2W8+4wWfTJRf8v95Pzsu5Rcng6/rkv/P2pveG84RwUlK0w1s5mG13l9N7e8wNsScwvCBX/sYt6YBSUjhzWqz8ZE1pVqN3SByX52cCi7WFKxi1iHM9De/fGoVgp3g+C0dPymP/Pm11k95l1z8Olnu+FXC5iKJu67YwgoDkBwtZb1N3r1+UFKMCW8KtRK7Zl1h8udjUnrqjJRfLk1NcRnkWkWXdPBJSOXVUjBtnzkFVjkJTopAtCbbOmWirUPe/Ytvi80uuPyNkmtz9xOio8tXBdcDf3PVGwVAUnRR3rX+Dkk5RkcpNKn0/pxSdcducKKCP80tPT/BJDeFzCclZfOJiR/Ahll7yC/zp7/+BDj4kglwJO695lZ570++Ze1qg+s3q+170zVcDwwkT0tO7RUHsNKQMt0P6/1Ky656XmumuaWnx3nwzHHVAM5f0M4KRMhsPqZs5forpHO5e+fv8mAaYJN0H0U2Ex8ZU6Se2DUT3PLz40xzMyT4d27WH6oTYHMaxNkAbuNK5RbYekyZeVjNxdg1U929V1zL9cCANdJ9FNlMTHhTolbsErqYz2vrD+3Bg3BojDmm7JG/uFZs4tpRZEx1ASul/iiymXhoLQUWit0gdJ8dl4mfjUplpMwDaDiP2QGuHoUWPAA3WgmOSJN8jnOA62COKVs6cVI2PjsktuhZs9qZh9U4bgyw1oBs3pDaq4Rn46Od5ZY8rPf4n2P1z/52JroIQ7D6sKKdh99qsOmYssWrVkrvr6R/pc4cN2amuocuvlwAWMep6a7BhNdic8UuE12EyUx/zY+js8efTXjBxRfs/Z7LHFNmy2UUK674ldRPd81U1xw3NtTzOgFgpUF/unuPOIQJr6Xmit3yK5MyWTzDDWiI3MwH39pWdAjsmPJ2LF8mF65/s6QVu7pAKjhx0cRsTHgtNDt2zc7lxE9Hg6t/g91LIGqV6csvXilJ+fmJ4H3DXHqR1auPbbiMYtnqi6W9u1vSyJzA8LGrb2BXF7CdliH5tfWfFMcw4bXMzNit7ulOPj0ugC3a/KlvPnjryORDb4/8+bvlkhPPStzMUWSve8cGSRumukCqaMnJbrlmnTMPq1URvBaZGbvm0oiJn4+xvgCrBfF7YUem1h6SuoyiZ+1l0n1xunZe915xnT/ZvZpzdYHUcOeiidl4LNsS1dg1U93S02eC0xcA21UvvJhsG5N8b3smdn6Tuoyi64JeSYvDK1fLnVdu56E0IF2cuUZ4Lkx4LVCNXbOrO/7j00x1kWrVB97aLup09qKLuKe8aTmKzBw1dtcVW4KpLoC0cXe6azDhTVg1ds2DQRPHxgRIO/MJW3DJhf9Wjd/2izudOuc37invsjdcIrbbf9kGuXPDdtYXgHRyerprMOFNkIldXdL9E/5Ut3KyLIDLcovzU+G7rN2Jc37jmvLafhTZ0eWr5M4rr+ehNCDV3J7uGkx4E9L9TX2bd6rSzwoDssIcbWYexDSmVh46grWHtIprytu9aoXYiPUFwBnOT3cNJrwJ6H5I31J5fmJg8ukzXAuMTDPHmpmH3dK67xv1lNfWo8hYXwBc4v5012DCGzMTu+Wnx4PYBbIuOGt6xr5vxxu6UrXyEPWU11w0YZPBlauDo8ZYXwCckYnprsFNazHqflDfMvnz0wOlFzhyDDhPRUvl1amb3fRoRcTTqXjQ7dmeS2XnEw9I2Mx0d9lll0iuLfl/BmZ94VPr3iv/ru8DUuzuEQDOGJRN6+6UDGDCG5OuvynfMv7jkwPVK1oBzO/s+b5Pj0+d8vCGRdZOfaOa8nb2LJV8V/I7zuZK4L1XXMv6AuAe7Y89MxG7Bju8McjffXKHrngHeTgNaJ7ND7pdMvKMPPIX10qYXvf2DYkGr7k84ta3f1CKi5noAo7aL5vX3SoZkf6zgSzX/sXTG/VEZT+xC7TGHN1nTnkY+y8nZOJno+KN2/Nzyqw1HNxwo4TFXDSRVOyaY8a2vvtm2XbtzcQu4C4tUrpLMoQJb5Q+NbxR5fRh/z0+agARsGnqG+aU96K+t0p7d7fEaaS9U/ZyzBiQFZma7hrs8EaF2AUiZ6a+5s2GXV8z5Q1jl9dcNBFn7JrQvedNm4LQZU8XyIRjWZvuGpzSEAViF4hXRQcXW1RPeFDtuUTCN4wTG8xRZHEF7z1vukZ2br5JvrnqjTKeZ/4BZID2/3OXvHPDNyVjWGkIW/9wQZX1USF2gUQlda7vvff+m6anvHFdNGHO093NA2lABmXjkom58NBamEzslpjsAjYwD4qah9zOPB7vQ25fuu42aVbUF02Y0DUPpG3lgTQgizJzycRc+D2ssFRjV0lBAFileptbHA+5zT6X9yf5RfJMvktezrXJmHpti2ylV5JfLY/J5ZWpWxfNdHfxRRdKFLghDYBvQK5Zd0AyiuANA7ELpMLMh9yiXHf4y03/k7zwrz+XRzov8CO39p9/8+QJ+a1V4T8wVly8XO648no5dPHlAiDTMncM2Wzs8Laqf7hnOnY3CoDUabuwI7TTHdomRuWSoUP+28Hg/Ua9t7dDPuZPn1d1tPb3YkK335/oHlgd/T4wgBTw9F551/p+yTCCt0XqM68c9P93hwBIteqxZvnlzf3GV9fJF+TKB/5Auk69IK0wsfvbr++STf70uVGcpQvgfNl9UG0mgrcFuc8M79Gi+wWAM6qnOzSy5xtW7M70sYu65LdW1ff3wFm6AOah/f9u84N3UDKO4G0SsQu4zYRv+0Udkr+wc8F1hyhit+qOSxfLe3vnn/QSugBqyNyNavMheJvxyZd3qHzuoADIhIX2fK/evyuS2DW680r+4k1LztvpJXQB1MHcqOZPd/uKAoK3YVwsAWSWCV+z6lDd81393f/Lf/sbidL67jb547VTN6+Zh9H2vema4GE0QhfAArTkZHeWjyGbjWPJGvHa8WPELpBBM8/zXbr0RHAaQ9T+62hZ/h+9RB54+zZOXQBQr0yfuTsXgrcBqux9UZQqCIBMM2f59vzsPzd19FgzPne6S75L7AKoz7Gsn7k7F64WrpN5SI3jxwBUFV54WOKyovgLaRs/IwBQg1ll2Mve7vkI3np88uUdnMgAoGrRxEuyaPIlidOlQz8QAKiBVYZ5ELy1mL3dXO6LAgDTlp05LnFb9q/PCQAsgFWGBRC8NaiSPihKCgIA05aOxR+8i068KgAwD3PBxK2sMsyP4F1AsLerZKMAwAztlTGJ2+IRghfAPDx9F7epLYzgnc+nh7ewtwvAFpNdiwQAzqePybvW9wsWRPDOxeztit4vADCHUn6xxK1M8AKYTeth/1eHbYKaCN455EqVfvZ2AcznTOeFErdSJ8EL4Bxa8uoO9nbrQ/DO9qmXd2mVu0UAYB6vLr1C4vZq4Y0CAGeZvV2OIKsbwTuTWWVQuT0CAAs403GhlGNea3jhzW8VAJh2lL3dxhC8M6iy3s8qA4B6HFv1fonLidddLGd6LhAAkKnzdm8QNITgnZb7zPBt/hdbBABq6X5Fnnr/qJQXKYnD81uvl1w+LwAyT4vnxy57uw1rEwSrDLrMEWQAavBDN7f+IVFrj0jF/+rxa7vkjf9wRqI0sWKlDG95nyz3358cG5Px06elUi4LgMzR/n/ulHf1DQkaRvDK1KkMWuV6BADmctFPp0J31c/O+ebj13bKxd+bkEXDnkTlv/0vf3j2/Y7Fi4O38sSETJw5EwQwgIwwD6m9a/0+QVPi+f04m33q5V0ql+PMXQDnmyd0Z1r0qieb/+yktJ3RErbiTf+DPP+e+XeFvUpFzpw6RfgC7jssm9dx3m4Lsh285lSGkj7Mg2oAzlFH6M609NmKvOP/PBVq9D79398oz/zGjXW91oRvyZ/4jo+OBu8DcIk+Jl3lq6Svb0TQtEwHb+7TLw9w5i6As8yO7qb/WHfozmQmvW//P061vN5QXrw4CN2FJrsLMdNeM/UlfAEnmBMZtvGQWuuyG7xmulv2P2sCgBkPo7XCRK95iO3i709KM0786hXyi13/s0ysaP0mN/Z8gZQz1wYrf7JL7IYis8GrPv3qMVYZgIxrH5Pc2x5oOXRn63puUtb+/WlZVfT/EpO1f5l95fVant1xs4xuDP9s3+qerwlgpr5Aamj/v/5kd/2gIBSZPKXBnLmrRRcEQDb5oavefFhybx4M3g/bqEzKv1znf7y6TuSC57WseE7Jslf8X3CnB7/lDpGxpSInV2h5YbX/9U7/+xZ9X5ZK+MFrzu/t7ukR7XlSGh9n3QGwn/+Lh3erbL5yUBCa7E14eVANyK6IQ9fQpYpUft7csyVLLv/fpH3pWyRqZtprHnAzAQzAMp7ey7XB4cvchHf6zN2CAMgUdbkfulc+FFnoVnkvNX8Rxfhz90u7H71Ra+vslCX+G+sOgGWI3chka8LLg2pA5qhLnwj2dM2DaVFrZbpbFdeUdzZucQMSRuxGKlMTXj92uWACyIoGz9INg3619RWBuKa8s3GLG5AgYjdy2QneT728y//fLQLAbS2cpdsq71Rzx5HNVD71Qyn5b0lMeQ2z7mDeFi1dGsQvD7kBESN2Y5GZlQaOIQMcZx5Iu/IhyV1+WJLgjUyI9/xpCUObH7tLE5jyzoepLxARYjc22ZjwmukusQs4S63/RqQnL9TDezm8v3bSU97ZmPoC4cu15fd677iiXxCLvLjOPKjmqf1+8PYIALdc9FPJv/ceUZf+i/+rWUmSYqa7+sSEhMmbfEk6V14nNlG5nOTb26VryRJp7+jwv0FJpZTcP3cgjVROSceiRXvLV/1qvyA2zk94c2W5RTPdBdyS4J7uXMKOXcO2Ke9ss6e+nPAA1GYuglm0fOnA6OWX9gti5faE15/uSkXvY7oLOMLs6b71HyV/7V+LWvKq2MAcRea9EM0qhY1T3tmqU9/O7m7p6OoyV0QFt7pprQXAa6ZvPRw4ffkluwWxc3rCyyUTgDvU2iNT5+m22/XgVCsXTdRi+5R3NhO+5hpjwzzgNuG/lSdbP7kCSDtz5F/X0iUDJ9deROwmxN1TGrhkAnBDAufp1iuMiyZqse3EhkaZh9t40A1Z1rV0qSzuXjLw6poVxG6CnJ3wTk93BUBKJXzMWD3CuGiilrRNeWczv41bvdTCPOA2PjrKVcbIhOkVBmlv7yB2LeDmhJfpLpBqtq4vzFb++bBIyZOopX3KO5eSOdfXD1/O9oWL2jo6pLu310Tv0eHVF1wlSJyTE16mu0BKWXb6wkLMUWRxxK5hprwTLz9m/QNsjWhftCh4W7xsmZTGx9n3hTMWL18ePMTpO6o9tU1gBfcmvEx3gfQx6wtvPpz45RGNiGu6W5XruFCWX/kX4rLqvi/xizQyKwxLLrggeHhTpmN3ZE1vtEv+qJtzE16mu0DKmMsjNv9NMN1NCz1WijV2DXNE2fgLD0vXqveLq2bu+xK/SBMz0TVnUptj+oTYtZJbE16mu0B6pOChtPlUnjsdyWUTtah8tz/l/fPgyywx8Wt2fk38crkFbGJ2dc0Kw/RU1yB2LeXUhJfpLpAO6tInph5KS9FUt8ocRZZE7AZ/7cpoMOVddPGHJUvM5LdzyZLgjckvbGCuB160dFl1V7fqmB+7NxC7dnJnwmumuyV9WLhGGLCXP9XNbf6bIHjTKqnpblVWp7xzIX6RhFnrC1XHpie7RYGV3JnwlrwdolRBAFhJXX5Yclc+lJqH0uYT7O8m+dfP6JR3LnPt/E6Oj/vxOyHa42pjhMusL5jQbevsnP1dxG4KOBO8StRtAsA+KTpqrJY4jyJbyIQfvJ0rrpNc54WCKTPj1wgmv2fOcMkFWrZA6BrEbkrkxQWfenmXyqldAsAqZqqb/7X9opa9IC7wnjstUrFgcqhLwakNHRe8UzC3XFubdHR1SdeSJcGXef/rWmviF3ULLo/o6ZFFy5YFP57mQOymiBMTXqVyewSAPRzY1Z3NrDLoCXtiqTTyg1RfORwn8wS9eZv50FtpcpLpL+ZUY6JbReymTPofWvvMyzuU5A4KACsEJzCYc3VTvqs7W9IPq83FxSuH41YplWbs/vLgW5bVGboGsZtCqZ/w+rHL7i5ggxSfq1tLkkeRLcRcOcyUtzUzp7/a84IADuLXj2DO/HWfOV6sY9Fi6Vy8eOZZugshdlMq3RNeLpoA7JDC29IaYR5W854/LTYyVw4ve+sfc0xZBMy6Q8Wf+k6a+PW/JIDdYaa5ZrfbPOQ463ixhRC7KZbqCS8XTQDJU2+738mp7kzey/auZ1SvHOaYsvCZkx9yixZJu/9mVAO4uv9LAKdLdZprQreOtYXZiN2US++El+kukCx/mpu/9q9Fep8Rl5mH1SrHT4rNuIwiGdUViNcCuMT5v5ZpMXKrhv3YvYrYTbf0TngnK1skx3QXSIIrl0jUIzh713LmMoozz94viy+7RRAf81vhJqKCkFq6NPg2E8DVCGYNIhlmMt9u1hVai9yqYSa7bkht8HIUGZAA82Da2x+Q3JojkgW2Pqw2l4kXH5b23nfwAFvCqg/BVS/AqE6BqxHs+QFMBIfLTHHzbe1B4JrQnefM3GZUY3dIkHrpXGngKDIgfr3PTK0wOPpg2lzM7q730hlJC44pS49gBcKEsNkLNl+yDlG3auC2m+l6R0fwCYYK/3d8iV3HpHLCq0Tx+3ZAjIIVhrfdL1mThnWGmcwxZZMj35eOnncI7HZ2FWKGmdNgQvg15pY8E7Vt5s3/Z1bn8WGtIHYdlL4JLw+rAfFx8Ma0eulTk1J55pSkDceUuceEsDkhwqxDlP0386X5ehDIDq1HmN1bE7PVL9um10NipqcfUCN2HZO6CS9HkQExyeAKw0zeqXTeusUxZe4xv12fN29+/M2VfzMDOAhjrc/5Nm2+nvAVymYNQamp/w9KqWDPNjj2zX8/iNw2K3LEj13v1pE1K4ldB6UueLXkrhMAkcrSKQxzSdPDanOZ8IO3c8V1kuu8UOC+IB7rDEYTwiaATQgblekQnh3EXh2TYxPiM3dnTcAGX/oRa7797NftiNlaqrE7IHBSulYaeFgNiJbD1wM3wuab1erFA2xA3YjdDEjVhJeH1YAIZeQiiXrYfLNavcwDbCX/jWPKgAURuxmRnmXY/uGCn7w7BED4Lvqp5D/wx8SuTN2sJiVPXDB27MvBpRQA5uTHrr6T2M2G9ASvuVkNQOjMvm7+vfdkdl93trQdRbaQ6gNsAM6nPH3XyJoV+wSZkJrg5WY1IGRmX3fzf8zk+brzSfvDanMZf+5+8SZeEgCv8WN376trVvQLMiMdwfvp4S2ipCAAwmH2df2pblauCK6XHnXzytfR4pcFwBRiN5tSEbw5qewSAOEw5+uaFQb2dc/j2nS3yjzAxmoDQOxmWSqCl7N3gXAof6IbxG5GL5NYSLDOYB5Yc5RZbeABNmQZsZtt9gfvp17exToD0Dq1/iHJbf6PPJw2D++lM+IyE7tjT90rQBYRu7A+eFVOfUgAtCR4OG39NwTzc3m6WzX5ymPB2bxAlhC7MOwOXs7eBVrjT3Nz79nHw2k1uHT2bi2czYssIXZRZXfwcvYu0DxzEsMH/ljUqp8JFubS2bu1mLN5zzzLUXRwH7GLmawOXpXLcZUw0IzpY8d4OK02F8/erWXixYdZbYDTiF3MZm/wBusMskUANMYcO2auCSZ26+Lq2bu1mNUGwEV+7A4Qu5jN3uBlnQFoWHDs2Ps/z0kMDcjadLcqWG14jtUGuGU6dncLMIu1wcs6A9AYdfnhqWPHUDfXz96txZzNWxkrCuACYhcLsTN4WWcAGhKcsfs2pnWN0qeyG7tVXDsMFxC7qMXO4GWdAahbELucsdsU71W3L5uoR2XsOKsNSDViF/WwMnhZZwDqQ+w2T0+UM3P2bi2sNiDFjr468tQdAtRgX/CyzgDUhdhtjffKuOA1p3/+Z1xIgbQ5qj21Tfr6RgSowb7gZZ0BqImrgluX5YfV5sKFFEiZIHZH1vQSu6iLdcHLOgOwsCB2uSq4JVm6SrgRXEiBlCB20TC7gpd1BmBBxG44snSVcKPGjv0lqw2wGbGLptgVvKwzAPMidsPDOsP8vMkXWW2ArY75sXsDsYtmWBW8Kqc+JADOEzygRuyGgnWG2sxqw+TI9wWwyLHpyW5RgCZYtsOrdgiAc3AaQ7hYZ6iPWW3wJl4SwALELlpmT/B+5mViF5iF2A0f6wz1MXu83MIGCxC7CIU1wZvTQvACMxC74WOdoTHlUz+U8RceFiAhxC5CY03wasldJwAC6vLDxG4EWGdo3JmnD3BUGZJA7CJUdgRv//BGUVIQAKIufUJyb+Mp+SiwztAcjipDzIhdhM6O4C15rDMARu8zktv8N4Lwsc7QPHNU2egx9nkRC2IXkbAieJVSrDMA3a9I/tq/FmkfE4SPdYbWlEZ+wD4vokbsIjLJBy+3qwFTsfvee4IvEQ3WGVo3/tz9UhkrChABYheRSj54uV0NmJrsEruRYZ0hHGaP9/TPv8A+L8I2TOwiaokHb04x3UW2KfOAWu8zguiwzhAe9nkRMmIXsUg8eDmODFkWnLV7+WFBtFhnCBf7vAhJNXaHBIhYssH76eEtHEeGrAqOH+Os3cjpiTLrDBHgfF60iNhFrBKe8HobBcii7lck97YHBNHTJycF0Rg79mXxJl4SoEHELmKXaPAqpT4kQNa0j3EiQ4z0KYI3Kt7kS3L6F38mQAO09io3ELuIW3LB2z/cIxxHhgxSVz5E7MZElyqiJyqC6JhjysaeOiBAHfzY9W4dWXPhoAAxSy54yxxHhuxRlx/mIbUY6dGyIHoTLz7MQ2yoZTp2Vw4IkIAEVxrUFgGyJNjbvV8QH32C48jiYh5i41IKzIPYReISC14lXCeMDKnu7SI+Fc1xZDE7/fM/4yE2zEbswgrJBO/UdcKc0IDMYG83fsRu/KYeYvvfuYkNVX7s6juJXdggmeAtV4hdZIZae4S93QR4nM6QiMrYcRl76l4BlKfvGlmzYp8AFkgkeHNadgiQBWZvd/1Dgvgx4U3O5CuPyZnn2FfPMj929766ZkW/AJZIJHi1ym0QIAOC2GWVIXbcrpa8cT94J19+TJA9xC5sFH/wsr+LjDCrDOYN8eM4MjuMFr/MyQ0ZQ+zCVvEHL/u7yAJWGRLF7Wr2OPWTz3JyQ0YQu7BZ7MHL/i6ygFWGBHEcmVXMiQ2nfnIX0es4Yhe2iz142d+F61hlSBaxax+OK3MbsYs0iDd42d9FBrDKkCyOI7MTx5W5idhFWsQbvOzvwnGKVYbkjfPAmq3McWVjTx0QuIHYRZrEvNKgtgjgquBBtW8IkqNLFdETFYG9Jl58mDN6HUDsIm1iDV4l6joBHMUqQ/I4jiwdzBm9RG96+bE7QOwibeIL3v7hHmF/F67yp7s8qJY8HlhLDy6mSKfp2N0tQMrEF7wlYhfuYrprB4I3XczFFERvehC7SLMYVxq8LQK4aNXPmO5agOuE08lEb+nUDwV2I3aRdrEFr1Ls78JNuXU8qGYDfYaH1dJq9Od/xhXEFtNKHSR2kXZxPrTGSgPcY3Z3/QkvkqdPc/5uWk3dxvZZotdOR6UitwqQcvEEb/+wid0eARzD7q49NOfvphrRa6Wj2lPbRtb0jgiQcvEE7yQXTsBBnMxgDfZ33UD0WoXYhVNiCd6cki0COIbprj3Y33UH0WsFYhfOiSV4tcptEMAx7O7ag+PI3EL0JorYhZOiD14unICDglWG7lcEdiB43VON3smR7wtic8yP3RuIXbgo+uDlwgk4SF3yhMAOulRhf9dRJnrNkWVcThGLY9OT3aIADophpYELJ+AY87DaG/5FYIlx9nddZy6nGH/hYUFkiF04L/LgVUrY34VT2N21C+sM2XDm6QNy5rn7BaEjdpEJMUx41RYBHMI6g100E97MGPeDl+gNFbGLzIg2ePuHC8KFE3AME167MOHNFhO9Y08dELSsSOwiS6IN3jIXTsAxJnY7zgjsQOxm08SLD8vJH/5B8FAbmmImu1uJXWRJtMGrFcELp6ieZwT2YJ0huypjx+Xkf/uEeBMvCRrCGgMyKdLgVUpdJ4BD1EU/FdiDCW+2eZMvyamf3MUFFfUjdpFZUT+0xoQXTlFLXhVYZJIJb9aZ6D35w09wbFltxC4yLbrg5YE1uKiXlQZrVLToCYIXUzi2bEHDxC6yLrrg5YE1uIb9XavoibIAM5kTHMyKA3u95yB2AYkyeHlgDa7p5HQGm/DAGuZSPvVDovc11dgdEiDjIgtebliDa1T3KwJ78MAa5mP2ek/819/J+l4vsQvMwIQXQDrxwBpqMHu9o8e+nMXzeoldYJZogrd/uEeUFAQAosADa6jT5CuPZe28Xq0971ZiFzhXNMFb4jgyANHhgTU0orrikIFTHKZjd+UhAXCOiFYaPIIX7plcLLADD6yhGeYUhxP/8juuTnursTsgAM4TSfAqJdywBufo4UsEligRvGiOo9NeYheoIaIJryoI4JrRFf6Ud5EgeUx40SqHpr3ELlCHqE5pYKUBTtLDlwqSp8fZ4UXrHJj2+rGr7yR2gdrCD97+YWIXztIv/qogYRXtl4oWICzVae/Ey49JmihP3zWyZsU+AVBT+MFbrhQEcNWLvyJIFic0IApm2jtW/HJqbmnzY3fvq2tW9AuAuoQfvFw4AYfpF34leENy2N9FlMzVxGbNwVxYYWv4ErtA40IPXqUUJzTAafrJ/06QIE5oQAzMhRU2hi+xCzQniofWegRwGFPeZDHhRZxsCt+J5/9++NWh3xoQAA1TEqb+4R5V1sMCuK77Fcm///MiHWcE8ar8coRrhZGY9p63S+eqD0j70rdInMaevlcmXnjIvHtMcrltsvObRQFQt3CD99PDW5TShwXIALXqZ5J7Dw9Ix638o1cESFqu40I/fN8vHT3vkFznhRIVM1UeLX452C2egegFGhRu8H7m5R1KcgcFyAj1pv93JHf1fazxxMSc0FD55QkBbNLmT3s7VlwXTH3Dil9dHpXxFx/2p7oPi66MzvUSohdoQMjB+8o+Jeo2AbJhRHtqa/5j/26jyqn9gsjpsZJUjp8UwFb5xaslv6gg7b1vD6bAbYsLdf+xJnJLp38oky9/O5jozhO6MxG9QJ1CDV71mVfNOsMWAdwXxK7c3TtkvpJ/8jd3Eb3R814dF++FmhEAWEPlu4MIVvnFQQCrtu5zvt9Erq6MSdkP3SYfihuWit4mN31rSADMK+zgPSpcK4wM8GO3rxq7VUH0qtwXRWlWHCJiYtdEL4BzEL1ADeEdS9Y/bD7IE7twnlbe7tmxa1TWfXVAadnqv2BEEAld8gTAeXolrx6Vr72Pj8HAPMIL3hKxC/cFsfvZlQPzfX9p3d8OEb0RmuQ4MmAeRC+wgPCCV1X4bVw4rVbsVhG90WHCCyxoKnr/7r1bBMA5wgterfisEs6qN3ariN6IeFoALKhXcrlH5cHttwiAs0ILXqVkgwAO0lrf0UjsVlWj10+0oqBl5gxeAHVRomU/0Qu8JrwJr6iCAI7xY3evfG5F09epmeitKE30hqHCdBdoANELzBBi8PLQGtwyHbv90qorvlokekNA8AKNInqBaeEEb/8wsQunhBa7VURvy3hgDWjKVPQ+cP3tAmRYOMFbEk5ogDNCj90qorc1JY4kA5qk/F/ZviAHt+8RIKNCWmnwmPDCCZHFbhXR2zTNSgPQCiWe7CF6kVXhBK+SggApF3nsVhG9zWGlAWgV0YvMCiV4lSiOJEOqxRa7VUQvgGQQvciksE5pYIcXqRV77FYRvY1hhxcIi4nefqIXWRJW8LLDi1RKLHariN66scMLhIxJLzKk9eDlSDKkVOKxW0X01odrhYGwsd6AzGg9eDmSDCnkx+4BK2K3ykTvRGefaBkSnI/pLhAVoheZEMJKA0eSIV2mY3eX2KZvYKQ82bmV6D2fZroLRInohfNaD16OJEOKWBu7VUTv3DyOJAMiRvTCaS0HL0eSIS2sj90qovd8rDQAcZg6veGB931FAMeEcUoDO7ywXmpit6oavaIHBQBipXYTvXBNGMHLDi/sZialo7nbJW1M9L7lq1u1Jwck65jwAjEjeuGW1oL3D4YLAtjMj109qrbKvt4RSanKuvt2ZT56K+zwAvEjeuGO1oK3jQfWYDEHYreK6AWQDBO92x+U/VtYX0SqtRa8ulIQwEYOxW4V0QsgITtlacejRC/SrLXgVaoggG0cjN0qE73iyT0CAHFS0kf0Is1aCl6lhCPJYBctRV1WO12M3aryuvtuF3MtMgDEiehFirV4SoPiBz3sMRW7W+VPeoviuPJbv9qfpejVJR5aA6xA9CKlWtzh5aE1WCJDsVuVtegFYIlq9B789YIAKdHiDi/BCwtkMHariF4AiTDR63lEL1Kj+eDtH+bCCSQvw7FblYnozYdxRw6AkK0hepEWzX8UKXGlMBJG7J7levQqehewFdGLVGj+wwhn8CJJxO55WG8AkBCiF9ZrPng5gxdJIXbnRfQCSAjRC6u18huFBQHiRuzWRPQCSAjRC2s1HbxKqdUCxInYrRvRCyAhRC+s1MqEl4fWEKcRYrcxJnq1p3eLCzryAiA1iF5Yp5Xg5VgyxGVEe8RuMyrrvjrgTPQCSBOiF1ZpLnj7h5nuIi5TsXt375CgKU5Eb14JgNQhemGN5oK3xHQXsSB2Q5L66M1xEC+QUiZ6H5evvY9uQKKa+yiiKkx4ETViN2RB9JZlp2g1Iimjckx4gRTr9X+X5lGiF0lqLni1KggQIV3xdhO74atced8hpWVr6qKXlQYg7YheJKrZ3ydkwovIaOXH7udXHhJEorTub4fSGL2qnbUGIOWIXiSmqY8gSskGASIQxO5nVw4IIpXW6AWQelPRe//2HQLEqMmRiWLCi9ARu/FKXfS2cxYv4IheUfKgPLj9FgFi0uQOL9cKI1zEbjKq0atFimI7VhoAlyi/JfYTvYhLk6c0ELwIj9b6DmI3OSZ6K0pbH72KB9cA1xC9iE3jwculEwiRH7t75XMr9gmSdcVXi9ZHLysNgIuIXsSimQlvQYAQTMduv8AOlkevYqMBcNVU9D5w/e0CRKTxDyEljiRD64hdS9kcvYvaBICzlP+R4QtycPseASLQePDqSkGAFhC7lrM1erleGHCdEk/2EL2IQuMfQZQqCNAkYjclLIze4OIJrhgGXEf0IhJNBC8rDWgOsZsytkYvANcRvQhdwx89/PnKagEaROymlG3R28UeL5ARRC9C1cS4hFvW0BhiN+Usil7O4gUyhehFaJp4aI1jyVA/YtcR09Hr//wfkgSpTs7iBTKG6EUomtnhLQhQB2LXMX70lic7k41ejiYDsojoRcsaC15uWUOd/Ng9QOw6qG9gJMnoVW1MeIGMInrRkkYnvAUBapiO3V0CNyUZvXnFSQ1Adpno7ZcHtn9BgAY19pGDW9ZQA7GbEUlG7+J2AZBpd8gD7/uKAA1oLHhVheDFvIjdjKlGr8ghiZHiaDIAonYTvWhEY8GrVUGAOWhRh4jdDDLR+5b7dmpPDkhMVBd7vAAMohf1a3QZjgkvzmd+W/u07BZkVmXdfbviil7VyYQXQBXRi/rw0Bpa48euHlVbZV/viCDTYote8+Aa5/ECOMtE7/YHZf8WhnKYV0PBq5TiWmG8htjFLHFFr+rmwTUA59gpSzseJXoxH873QXOIXczDRK94co9ESHFSA4DZlPQRvZhPgw+tsdIAIXZRU3ndfbeLuWkvIgQvgDkRvZhHg8eSEbyZp6Woy2onsYtaym/9an9k0cseL4D5EL2YQ/3By7XCmIrdrfInvUUB6hBl9LLHC2Be1eg9+OsFAaSR4D3DkWSZRuyiSVFFr1raIQAwLxO9nkf0IlB/8LaxzpBZxC5aFEX0Bufx5pQAwALWEL0wOKUBCyN2EZLQo9fs8XLNMIDaiF40ELy6UhBkC7GLkIUdvaw1AKgT0Ztx9QevUgVBdhC7iEiY0Ztb3ikAUCeiN8NYacD5iF1ELLToNWsNnMkLoH5Eb0Y1ErwFgfuIXcTERK/nVe6QFrHWAKBBRG8G1R28SqnVArcRu4iZt+5r+7Snd0sLWGsA0ASiN2NYaUDViNZqJ7GLuFXWfXWgpehlrQFAc4jeDGnglAZWGhw2oj1/snt375AACWg1ellrANCkqej92vs2CpzWwCkN3LTmKGIXVmgleoO1Bi6hANCcNf7vFBG9jmtkpYHgdQ+xC6sE0VuWnaLVSEN/YF5JroddXgBN6yV63VZf8PYPE7vuIXZhpcqV9x1SWrY2Gr2sNQBoEdHrsPqC9wzTXdfoireb2IWtSuv+dqjR6DUPrvHwGoAWEb2Oqi9423hgzSVa+bH7+ZWHBLBYU9HLlBdA66ai9/7tOwTO4FiyjAli97MrBwRIgUajl4fXAISkV5Q8KA9uv0XghPqCV1cKgtQjdpFG1ejVIsWaLzYPr63oEgAIgRIt+4leN9QXvEqxw5tyxC7SzERvRem6ojfXu0gAICREryPqXWkgeFNMa30HsYvUu+Krxbqi19y8xnXDAMJD9DqgzgkvwZtWfuzulc+t2CeAC+qM3twKprwAQjUVvQ9cf7sglerc4SV402g6dvsFcEkd0as68xxRBiBsyv/I+gU5uH2PIHXqCl6l1GpBqhC7cFod0Zu7kCkvgNAp8WQP0Zs+HEvmIGIXmVAjeoOLKNjlBRA+ojeFeGjNMcQuMqVG9OYuXCwAEAGiN2XY4XUIsYtMWiB6VXtOchdwLi+ASBC9KVLvKQ0FgdWIXWTaAtGbW7mY29cARIXoTQl2eB1A7AJyNnr935EaOufbuX0NQLSI3hSoHbx/MFwQWIvYBWbwo7c82Xle9AZT3nY+vwcQGaLXcnwESDHt6XuIXWCWvoGRuaI3f/ESAYAIEb0Wqx28bezv2sif7B6Qu1dw4wswlzmil2PKAMTARG+/PLD9CwKrMOFNoSB2P7dilwCY3xzRm1/VzQNsAOJwhzzwvq8IrFE7eFWFI8ksQuwCDahGr8ih4OvmAbaLOJsXQBzUbqLXHrWD1+MMXlsQu0ATTPS+5b6d2pMD5qu53q5gvQEAokf02qKOCa8ieC2gRR0idoHmVdbdt6savflLl7LaACAmRK8N6tnhJXiTZnYQT8tuAdCSs9GbV5zaACBGJnq3Pyj7t9BUCaljwkvwJsqPXT2qtsq+3hEB0LJq9KqlHVw7DCBOO2Vpx6NEbzJqB68meBND7AKRMNErWu81F1KozjYBgFgo6SN6k1EzeJWS5YL4EbtApMpv/Wq//yvg3twb2OcFECOiNxF17PDy0FrsiF0gFiZ6VZvayz4vgFgRvbHj4gnbaCnqstpJ7ALxCKJ3Sfve3IWLBABiY6J3WcfjcvDXC4LIcUqDTaZid6v8SW9RAMTGRG9uxaK9Oa4eBhCvNeJ5jxK90eOhNVsQu0CiqtHLQ2wAYkb0xoBjyWxA7AJWKPd9rV+tWrxX2tn2AhArojdirDQkjdgFrOK94/7+3OuX7OXkBgAxI3ojxBgjScQuYKUgei9aRPQCiFs1etfI4S2C8CwcvH8wXBBEg9gFrOa961B/riu/V8zPVgCIj4neR2Ski+gNERPeJBC7QCp473+oX9rVnUL0AogX0RuyhYN3Efu7oSN2gXT54D/s83/i3ipEL4B4Eb0hWjh4SwRvqIhdIJ1u/NYA0QsgAa9F79c+ImjewsHL8xphGtZa7SR2gZQiegEkYyp6ZaSP6G1ejR3eChPecAxrT22Tu3uHBEB6mejN6av85h0WAIjPGskrorcFCwevx0pDCIhdwCU7vzXk/8q5zX/vmABAfHqJ3uZxSkO0iF3ARUH05oheAHEjeptUY4dXFQTNInYBl+38ZpHoBZCA16L3739DUB8mvNHQuuLdSuwCjguid/Iq/2f8YQGA+ExF7+TkDia99eGUhvBprfzY/fzKQwLAfTsHR+TD39rm/8zfJwAQn16/0x6UthO3EL21LRy8WgqCRkzF7mdXDgiAbPnwt+4QT7iKGECclP8rzn6itzZWGsJD7AJZ95F/7BdduUHY6wUQH6K3DgsGr1KyXFAXYhdA4MOPHOJhNgAxey16D+4QnK/GhFdxDm8dtOi9xC6As84+zCYDAgDxmIpeGdtD9J6PlYYWBbH7Ryv6BQBmCh5m+8fd7PUCiJHyf83ZQ/Sej+BtAbELoCaz1xtcR8yKA4BYEL1z4JSGJhG7AOpWvZltasWBaS+AqBG9szDhbQKxC6BhZq/XrDiId6cQvQCiR/TOQPA2iNgF0JIb/2mfP+1dK6w4AIge0Tut1k1rBcFZxC6AUJhp743/uJYH2gDEgOgVJrx1I3YBhI4H2gDEI/PRO3/w9jN0qCJ2AUQmeKDNnNmr9wnTXgDRyXT0qnm/p3+4R5X1sGQcsQsgNgfft1E89aD/3hoBgGhof9y5V0rqLrnpHzLzSfb8E94zkvlb1rTnT1yIXQBxMdNednsBRMtMevsl731B/v43lGTE/MGbmX8Ec9NaD8jdK+4QAIjbysl+yeXeKFO7vYQvgAio26U08ZWsRO/8wduV3QlvELufW7FbACAJWwfNSQ7HpLJ8rf8r0q3CQ20AIqF2ZSV65w/eUjaDl9gFYI2b/k7kgtLA9C1tB4RpL4DQZSN6OZZsBmIXgHWmpr1FWTG5izUHANGYjt5vfECJ7hcXEbzTtKiDxC4Aa7HmACBSfvSOlx6VA4O9LkYvD60ZWo7KablVAMB2Zs3hxm8NSG7x9GkOHB8JICxqiyzpeMTF6J0/eL1KQbLAj109qrbJvt4RAYC02Hlo+jSH/FXs9wIIjZI+F6M32ysNxC6ANDt3v3ct4QsgFA5Gb3aDl9gF4Irzwlf730D4AmjBzOg9vEXSboEdXuXusWRajhG7AJxzNnxLW8XzthG+AFpiondpx3+Rka41aY/ehSa8bgavid0KsQvAYSZ8P/JPg4QvgBCs8X8deSTt0ZutlYZq7P5xb1EAwHWEL4BwpD56sxO8xC6ArDovfHm4DUDDUh292TiHl9gFgBnhy6kOAJqS2uidP3i1FMQFxC4AnGvO48yCCyyIXwC1pDJ63V5pIHYBYH7nhG/+qhlXFhO+ABaSuuh1N3iJXQCoTzV8zZXFleVrg/DV+rAQvgDml6rodTN4iV0AaM5NfydB+Ho92ySnZ15bTPwCmC010Ttv8ColyyWNiF0AaJ0J353fGjq758u6A4C5vRa9X/uI2GresxjUZ141v521RdKE2AWA6JgJzsttW0TldvkfPW6e/laXzvQB0LxjUtE3ivQcDT5htoxLKw3DWqsbiF0AiMjsY82Y+gJ4zRrJq0dERvpsnPS6MuEd1p4/2b27d0gAAPFh6gvgXMP+pPc9tk16XZjwErsAkJTq1PfGd/pT38kLZp3wwOQXyJ5eGye9C014j/pfbBS7EbsAYBsz9R3pKohUPiSeus3/Fv99pr5Axlg16Z0/eD/96jH/ewtiL2IXAGx37srDtUL8Alky7P9sv0PKyw8kHb1pDV6tK94N8vmVhwQAkA7EL5BF2v9Zvjvp6E1j8GqtvFvlsysHBACQTsQvkCWJR2/agpfYBQDXEL9AFiQavWkKXmIXAFx3Nn7VDv/tgyJnPw4RwED6TUWvWnxAdsa7lbrQKQ1WHSfjx+5uYhcAMsQcadQ+Yk4Luk4q8iE/gLdMfw/xC6SXlpzsFVm8N87oTUXwatF75Y9W9AsAIJuqR515Ff8dM/nV5sseIX6BNIo9eq0PXmIXAHCemasPItf6X1bPjSeAgXSINXqtDl5iFwBQ03nT3+DSpML09xLAgL1ii15rg5fYBQA0hd1fIE1iid65f/L3a1Hl4cSCl9gFAITm3PWHKwlgwDqRR+/cP9n/YLig2vUxSQCxCwCIjO4XOTTYI+W2jQQwYJVIo9eq4CV2AQCxmhnAkvOnwPpa/yPjxukTIAwiGIhPZNFrTfASuwAAK1RXINrUBvHUdcJDcECcIoleK4KX2AUAWKt6CkSlNDUFPncNwiCCgXBNRW9J3SU3/UMoz5QlHrzELgAgdWZPgbUucBYwEDa9T9o775QP/qeWo3fun5Sf8IO3Lfrg1Z7/f+TuFXcIAABpNnsXOOdPgVmFAEKgB/zovbXV6J3nWLLhjaqsj0qEtPb/D3xuxW4BAMBFc0XwuZNggxAGamo9euf+ifbp4S1K6cMSEWIXAJBJMyPYrENUTPzq1ewEA7W0Fr2xBy+xCwDALNXb4SpeQXR+I9NgYC5+Q+blVvnQu7So/kb+wHiDl9gFAKBO51ySoXvOnhAh0kMII7O0HJXTk++RW7YMNxK9sQWvP38+LH90wTYBAADNmx3C80+EDWIY7mkieuMJXv9vTI+qbbKvd0QAAEA0qqsRZT+E8+bINFkjwbnB59weZxDCSLcGozf64CV2AQBIlpkKf92fCuv2wtk94WBNIrhEoyCvHZ9WRRDDflPRu012DdZszGiDl9gFAMB+c02Glbpsak3CxPA502GDIIYl9IBcUNotWwcXfNXcP2A/4wevtBi8xC4AAOk3ezqcy62eEcQ9c6xLGAQx4qLF87bJR/5pcKEXtc35rV7F/ICWFv7Sx4hdAAAcMLUfaT6eD02/nW/mhFirQrAmUV2ZCE6VmHNKHPzZBWiN8n+87fC/HFzoRW0SNhO7FWIXAIDMuOnvzP8OLfiaw1tMNhek3DYVw7MnxYQxmqZW13rF3MHbnh+SShMXWVRj9497iwIAAFA1tWNZnH6bW/XINRO/M8O4onolp/0wnn64bu4H7aqI46xRennNl8z7HZ95dVjMD7h6EbsAACAus+M4+DZVXadY7hfO8nMD2UyR1XxdQySnmdb75MPfumOhl8y70qBF36NE7ZG6/kLELgAAiNFru8XmrVjXH1Ndq5D2nmDf2EyQvVzP9MRYgimyieKpFYt6Qvns340gKX6y6kO1XrTgvyB/yvu4/0WfLPyXIXYBAIC75pomV2O5zZ8km5WL6lT5vGAOFOr7CxHODdNyUD78jzfUetmCD63pNj9ky94ef9J7m5z/L0Fr80RcRd1K7AIAAGc1M02ebWY0G9VwDr5PTb3/WiBPT5uDb3wtoM95TV2T5/m4Eta/lHzuznpeWN//4U8MF6TN2+W//Fr/H/CIeHJcct7X5Y8uHBQAAAAk5+yqxrSZMW1Ug9qoTqSrzk6mq6+dYxo9M8SnXtRKbDfivGHrjPcPSX7yVtlR+5a1uf5EAAAAQGNmR/dZ0/vSc6muhcznvNAO9nWL0lH6er2hCwAAAAAAAAAAAAAAAAAAAAAAAAAAAAAAAAAAAADT/n9aOnKUXMilYwAAAABJRU5ErkJggg==;" parent="3eX0JZM85urcmLpb5Tb1-759" vertex="1">
          <mxGeometry x="265.1428571428571" y="6.263345195729538" width="42.27758007117438" height="42.27758007117438" as="geometry" />
        </mxCell>
        <mxCell id="rQb4yJdU9YCb1yhqzMW--15" value="" style="shape=image;verticalLabelPosition=bottom;verticalAlign=top;imageAspect=0;aspect=fixed;image=data:image/png,iVBORw0KGgoAAAANSUhEUgAABLAAAAJ2CAYAAABPQHtcAAAACXBIWXMAAAsTAAALEwEAmpwYAAAgAElEQVR4nOzdf2yUV57v+U+Vf7soIDhtEkMg9EzsSAuhd2M6oF1WwfTsji7grHTDiB9RrrYDcRjt7fzopK9uh5kk3ZDZ2013Olltg0MSadP8GpGVNmWYf3ps5w7SAk3lqgHfVWw0IT+gEldSxFCUf9u1fxRFDLHBVfU85zlV9X5JrZkkdp3jU89T9Tyf53vO8SWTyaQAAAAAAAAAOyX9XvcAAAAAAAAAuBUCLAAAAAAAAFiNAAsAAAAAAABWI8ACAAAAAACA1QiwAAAAAAAAYDUCLAAAAAAAAFiNAAsAAAAAAABWI8ACAAAAAACA1QiwAAAAAAAAYDUCLAAAAAAAAFiNAAsAAAAAAABWI8ACAAAAAACA1QiwAAAAAAAAYDUCLAAAAAAAAFiNAAsAAAAAAABWI8ACAAAAAACA1QiwAAAAAAAAYDUCLAAAAAAAAFiNAAsAAAAAAABWI8ACAAAAAACA1QiwAAAAAAAAYDUCLAAAAAAAAFiNAAsAAAAAAABWI8ACAAAAAACA1QiwAAAAAAAAYDUCLAAAAAAAAFiNAAsAAAAAAABWI8ACAAAAAACA1QiwAAAAAAAAYDUCLAAAAAAAAFiNAAsAAAAAAABWI8ACAAAAAACA1QiwAAAAAAAAYDUCLAAAAAAAAFiNAAsAAAAAAABWI8ACAAAAAACA1QiwAAAAAAAAYDUCLAAAAAAAAFiNAAsAAAAAAABWI8ACAAAAAACA1QiwAAAAAAAAYDUCLAAAAAAAAFiNAAsAAAAAAABWI8ACAAAAAACA1QiwAAAAAAAAYDUCLAAAAAAAAFiNAAsAAAAAAABWI8ACAAAAAACA1QiwAAAAAAAAYDUCLAAAAAAAAFiNAAsAAAAAAABWI8ACAAAAAACA1QiwAAAAAAAAYDUCLAAAAAAAAFiNAAsAAAAAAABWI8ACAAAAAACA1QiwAAAAAAAAYDUCLAAAAAAAAFiNAAsAAAAAAABWI8ACAAAAAACA1QiwAAAAAAAAYDUCLAAAAAAAAFiNAAsAAAAAAABWI8ACAAAAAACA1QiwAAAAAAAAYDUCLAAAAAAAAFiNAAsAAAAAAABWI8ACAAAAAACA1QiwAAAAAAAAYDUCLAAAAAAAAFiNAAsAAAAAAABWI8ACAAAAAACA1QiwAAAAAAAAYDUCLAAAAAAAAFiNAAsAAAAAAABWI8ACAAAAAACA1QiwAAAAAAAAYDUCLAAAAAAAAFiNAAsAAAAAAABWI8ACAAAAAACA1QiwAAAAAAAAYDUCLAAAAAAAAFiNAAsAAAAAAABWI8ACAAAAAACA1QiwAAAAAAAAYDUCLAAAAAAAAFiNAAsAAAAAAABWI8ACAAAAAACA1QiwAAAAAAAAYDUCLAAAAAAAAFiNAAsAAAAAAABWI8ACAAAAAACA1QiwAAAAAAAAYDUCLAAAAAAAAFiNAAsAAAAAAABWI8ACAAAAAACA1QiwAAAAAAAAYDUCLAAAAAAAAFiNAAsAAAAAAABWI8ACAAAAAACA1QiwAAAAAAAAYDUCLAAAAAAAAFiNAAsAAAAAAABWI8ACAAAAAACA1QiwAAAAAAAAYDUCLAAAAAAAAFiNAAsAAAAAAABWI8ACAAAAAACA1QiwAAAAAAAAYDUCLAAAAAAAAFiNAAsAAAAAAABWI8ACAAAAAACA1QiwAAAAAAAAYDUCLAAAAAAAAFiNAAsAAAAAAABWI8ACAAAAAACA1QiwAAAAAAAAYDUCLAAAAAAAAFiNAAsAAAAAAABWI8ACAAAAAACA1QiwAAAAAAAAYDUCLAAAAAAAAFiNAAsAAAAAAABWI8ACAAAAAACA1QiwAAAAAAAAYDUCLAAAAAAAAFiNAAsAAAAAAABWI8ACAAAAAACA1QiwAAAAAAAAYDUCLAAAAAAAAFiNAAsAAAAAAABWI8ACAAAAAACA1QiwAAAAAAAAYDUCLAAAAAAAAFiNAAsAAAAAAABWI8ACAAAAAACA1QiwAAAAAAAAYDUCLAAAAAAAAFiNAAsAAAAAAABWI8ACAAAAAACA1QiwAAAAAAAAYDUCLAAAAAAAAFiNAAsAAAAAAABWI8ACAAAAAACA1QiwAAAAAAAAYDUCLAAAAAAAAFiNAAsAAAAAAABWI8ACAAAAAACA1QiwAAAAAAAAYDUCLAAAAAAAAFiNAAsAAAAAAABWI8ACAAAAAACA1QiwAAAAAAAAYDUCLAAAAAAAAFiNAAsAAAAAAABWI8ACAAAAAACA1QiwAAAAAAAAYDUCLAAAAAAAAFiNAAsAAAAAAABWI8ACAAAAAACA1QiwAAAAAAAAYDUCLAAAAAAAAFiNAAsAAAAAAABWI8ACAAAAAACA1QiwAAAAAAAAYDUCLAAAAAAAAFiNAAsAAAAAAABWI8ACAAAAAACA1QiwAAAAAAAAYDUCLAAAAAAAAFiNAAsAAAAAAABWI8ACAAAAAACA1QiwAAAAAAAAYDUCLAAAAAAAAFiNAAsAAAAAAABWI8ACAAAAAACA1QiwAAAAAAAAYDUCLAAAAAAAAFiNAAsAAAAAAABWI8ACAAAAAACA1QiwAAAAAAAAYDUCLAAAAAAAAFiNAAsAAAAAAABWI8ACAAAAAACA1QiwAAAAAAAAYDUCLAAAAAAAAFiNAAsAAAAAAABWI8ACAAAAAACA1QiwAAAAAAAAYDUCLAAAAAAAAFiNAAsAAAAAAABWI8ACAAAAAACA1QiwAAAAAAAAYDUCLAAAAAAAAFiNAAsAAAAAAABWK/W6A3DXeDKpK0NJDY6MaWhUGh1PXv9vFSU+lZZIgfISVZX5VOr3edhTAAAAAACAyfmSyWTy9j+GfDMwktQ3A6MaGJn+2xus8GtOdQlBFgAAAAAAsEmSAKvAjCeT+mZgXH0DY1m/xuzKEtUEShzsFQAAAAAAQNYIsArJ6HhSX14Z1dBY7m9pqd+nebNKqcYCAAAAAABeS7KIe4EYHU/q4mVnwquJrzdxzSwAAAAAAAAvEGAVCDfCpnRF1zhFegAAAAAAwEMEWAUg1j/mWqXU0FhS3/SPu/LaAAAAAAAA00GAledGx5M5Ldg+HX2DYxntZggAAAAAAOAkAqw8d6nf3fAq7ZuBUSPtAAAAAAAA3IwAK4+NjicVHzIzvW9gJMlaWAAAAAAAwBMEWHnM9LS+K4OshQUAAAAAAMwjwMpjV4fNTB9MGx6jAgsAAAAAAJhHgJXHRs3mVyzkDgAAAAAAPEGAlcdGx80GSqyBBQAAAAAAvECAlccM51fG2wMAAAAAAJAIsPKa31fY7QEAAAAAAEgEWHnN7zObKJWRYAEAAAAAAA8QYOWxqjKzgVJpidHmAAAAAAAAJBFg5bXyUrMBVqCcwwUAAAAAAJhHIpHHZlaYLYmqKuNwAQAAAAAA5pFI5DG/T6oyVIUVrPCrlDWwAAAAAACABwiw8twd1WaqsOYYagcAAAAAAOBmBFh5rqrMr1mV7oZLsyqpvgIAAAAAAN4hwCoAc6pLVOrSO1nqp/oKAAAAAAB4iwCrAPh90rxZZY6HWKX+1Ov6fVRfAQAAAAAA7xBgFYhSv8/RECsdXjF1EAAAAAAAeM2XTCaTXncCzhlPSpf6x3R5cCzr15hV6dec6hIqrwAAAAAAgA2SBFgFamhsXF9fHdPg6PTf3spSn+ZUl6iqjMI8AAAAAABgDQKsQjc6ntTV4XElhsY1Op7657RSv0/lpT5Vlfk0o5ydBgEAAAAAgJUIsAAAAAAAAGC1JHPFAAAAAAAAYDUCLAAAAAAAAFiNAAsAAAAAAABWI8ACAAAAAACA1QiwAAAAAAAAYDUCLAAAAAAAAFiNAAsAAAAAAABWI8ACAAAAAACA1QiwAAAAAAAAYDUCLAAAAAAAAFiNAAsAAAAAAABWI8ACAAAAAACA1Uq97gAAAACA3ITaj6ut44TRNl/5yeOqm1tjtE0AQPEiwAIAAADyXCQaU7irx1h7Pp/PWFsAAEhMIQQAAAAAAIDlCLAAAAAAAABgNeunEMYHx/RR76Ail4cVuTxy/d8HK0t0f22lGhcGPOxdyuh4UgPDSY1JGh9PXv/3FaU+VZT6VOr3tsR6PJnU0Kg0OpbUyIT++f0+VZT4VFXmfQm47WMoSac+TVh9HNqm++MLOtDWbqStGYFqBQNValg0X41L6hUMVBtpF7mJJ/rVeeK0ItGYvojGjLXbsnGt6mpZswUAAADIJ9YGWKc+TWj3sa/U3Tug+ND4lD8XrPBrVf1M/S8PzDYaIownk7o8OK7E8LiGRpO3/NmKEp9mVZWoqsxsEDMwklR8aEyJ4aTGk1P30e/zKVDuU7CixGiYlR7DgZFxDYzYOYanPk0odKZPHT1XrDwObRZP9CtkeDHZtOamFXp+y6MEWZaKJ/r167fe0wcnTyue6Dfe/rrVKwiwAAAAgDxjXYDV3Tug//THXoU/S0zr5+ND4wqd7VPobJ+al8zW3678nupml7vax8uDY7rUP37LUGiiobGkoldHVer3aXaVX7MqS1zt3+h4qr3bhUJp48mk4kNJxYfGFSj36c5AqeshUS5jOLPSrzuq3B3DSN+wth+JZHUcNi4IaMfaOtePQ0wt1HFc4a4e7d35LEGFZSLRmLa++JoiBiuuAAAAAOQ/q9bA2ncqph/v+2TaocHNQmf7tP6dj7Xv1CWHe5YyOp5U5MqIvk6MTTt4ufn3v06MKXJlRKPjmf/+dFweHNPnfdMPr26WGE7q029GdHlwzOGepTgxhpf6x3Shz70x3HcqpvVv/2vWx2H4s4T++vfntPvYVw73DJmIRGN67tU9XncDE8QT/YRXAAAAALJiTYC1+1hUv/rjl7ecpjUd8cEx/eqPXzgeHoyOJ3XxcvbB0EQDI6nXcjqA+aZ/LOtg6GZfJ8b0zYCzIZaTYzg05s4YOnUcpl+LEMtb3ecvaM/Bo153A9e0HjxKeAUAAAAgK1YEWG7c6O8+FnWsEisdvDgZlqRf04mwSUqFV5ccDpwu9TsXYrk5hk69plvHISGWtw60tXuyzhJuFInGtL+tw+tuAAAAAMhTngdYHT1x127wf/XHLxT+NLtpYBNFrzpf6SOlApgv46M5v87ASNLx8CrtUv+YIxVTbo5h9GruY9jdO+Dacbj7WNSR4xDZiScGtD/U6XU3ih6VcAAAAABy4WmAlZ7u56btRy7m9PvxodvvkJeLgZFkzutNORHg3O71c6kUy4cxfPq9zx3qzeS2H7mouEvriuH2DrS1M3XNQ5FoTG0dx73uBgAAAIA85mmAte9UTJHLI662Ebk8knVlzXgyVYHktkv92a9bFR8ad20x87TR8aT6BrNfE8r2MXz/TJ+R49CtzQVwe/HEgFqpAPIM1VcAAAAAcuVpgPX+mT4j7ew7lV3lRWLY/XBISgVlV7IMiEyEQ5J0OcspiiYCNim3Mdx9LOpwbyaX7XEIZ4Q6jlOF5YHw2R6qrwAAAADkzLMAq6P7iutVL2nxwbGs1iAyOeWrfyTz8GVgxEw4JKUComymAdo+hqc+TVh/HMI5L73+rtddKDqth6i+AgAAAJA7zwKs8Gdmb+Tbz8Uz+vnxpDQwaiYcklLhUKZT4BLD5vqXai+zMCofxrCz54pLvZlcpschnBXu6lG4q8frbhSNzhOnGW8AAAAAjij1quGPegeNtvdFX2ZVNkOj2a/5lK2RMakig3dk2HAfh8cyC4e8GMOBkaQC5b5p/7zp45AKLO+1Hjyqxp31XnejKOx6+7DXXQBc1X3+gkLtx/XBydM5T1E++uYO1c2tcahnAAAAhcezAKu7d8hoex/1DmT080MZhjVOGB5NqqJ0+uFLFjPmcjKS4WzAUQ823RvPcExMTR/0qj18V7oKq3ExIZabWHMMhe5AqEO/JqQFAAAwxrMphPEhD9KNDGQahDhhLMPpb6bWv8q2vRHD/cumzXgOuytmw+SaYJgaOxK6jzFGIQuf7SG8AgAAMMzTXQhR2Px5cHQFK/Ogk3Aca2G5i+orFDo2JwAAADDPs7v3YEWJ2fYqM2uvzD/9qXxOKfFl1map4T5m2l6JzI+hF+9bJjI9DuEeKoTcw9iikEWiMQJwAAAAD3gWYNXNKjPaXqaBWakHOUNpSWbhS5nhdy/TMSk3+xZLynwMG2orXeqJHe1hauGuHnWe/LPX3Sg4VF+h0HV/fMHrLgAAABQlzwKsZQurrW6votT80GSyA6EklRvuY0XGAZv9Y3j/XYYDLMPt4dZ2vfWe110oOFRfodBRfQUAAOANzwKsVfUzjba3bEEgo5/3+6SqDHYEzFVlmU/+DKcQBsrNTpcLlGdWgpUPY9iY4XGRq9X3BY22h1uLRGMKtR/3uhsFg+orFIOe81RgAQAAeMHDCqyAsXWw6maVqXFh5kFFdYW54ZmZRVtVZX6ZWvKp1C9VlWXemMlF0rMZw2ULA8am9WV7HMJdu94+rHii3+tu5L1INEb1FYpCNwEWAACAJzzdgu2xH84x0s62lbVZ/d7MihIjAVGpP/tF7WcZWhR8TnV27QTKS2RipmMuY/jYD2sc7s3ksj0O4a54YkD7Q51edyPvtbVTfYXC133+cwJvAAAAj3gbYC2rcX0x97pZZXrkgdlZ/a7fJ92RZXCTiWzDofTvuh0Q5RIO+X25/X3TlUsbjzww2/UqrFyOQ7jvQFs7N6U5iERjCnWc8LobgOuovgIAAPCOpwFWsLJEv1w7z9U23nlsUU6/P7uyxNV1nIIV/pynUtbOyHDl8gzNyzFkDFaUKFDu3qEWKM99DHesc/c4dPs4R26owsrNnoNHqb5CUWAHQgAAAO94GmBJqTWItq38niuv/bO/usuRCq+7Zpa5UuVU6pfuDORenVRV5leNA68zmTuqS1TqwDzK2hmlVo9hw9xK/exHdznQo+/atrJWy1j7ynpUYWUnEo2prYOF8FEcPmQHQgAAAM94HmBJqRt8p0OsbStr9dgyZ9Y28vtSVUhOBjCl/tRrZrpr3lRmV5bojipnQ6w7qks0x6HXdHMMnQjYpNRaWG4ch24FtHAWVVjZ2cPC7SgiTCEEAADwjhUBlpS60f/Zj+7KeSpYsMKv3z26wPHQoNTv07xZZY5MJ6ws9eme2c4FL2lzqktUOyP3hef9Pql2hnPhVVp6DIMO7O7o1hhuW1mr3/3be3Ku3AtW+PWzv7qL8CrPUIWVGaqvUEzCZ6m+AgAA8JI1AZaUqoA5vOUvsl7suqk+qMNb/lJN9UGHe5ZS6vepblaZamdkt3C63yfVVJc4Wnl1s2BFie6ZnX1IlA6Gcg0Sp1Lq96l2RqnVY9jUMFPvPLYo6+OwcUG1Dm/5S8cqAGFOPDGg1oP/5HU38gbVVygmVF8BAAB4y93Vv7NQN6tMv1w7T9tW1mr3sahOfZpQ5PLIlD8frPDrkaV3aNV9QWPrDAUrShSsKFF8aExXBsc1OJq85c9XlvoUqPBrZoXftdBlonRINKc6qUv9YxoYGdfo+NQ/7/elxjFQ7ldVmZlM0/YxzIfjEO7Y39auTc2rVFdLAHkrVF+h2IRZ/woAAMBT1gVYaekAQZK6ewd1sW9Y3dFBSandC4MVfi1bMEN1s3NfpD1b6RBmPJnU0GhSQ2NJjV8Lisr8Pvn9UlWZz0jgMpl0kCVJQ2NJjY6l+ilJfr9UIp/Ky3yqKPGmf5L9Yzid4/D+uVVqmFvpSf/gjtaDR/XK04973Q2rUX2FYvMFO20CAAB4ytoAa6KGuZVqmFuppoaZXndlUn6fT1VlPlV5l6XdVkVJKqgKlHvdk8nlwxjafhzCOaGO41q3erkaF9d73RUrUX2FYhNPDDCFEAAAwGNWrYEFALZopcJoSi+9/q7XXQCM6v74c6+7AAAAUPQIsABgEuGuHta8mUT4LOOC4sMxDwAA4D0CLACYAlVY37Xr7cNedwEwjumDAAAA3iPAAoApUIV1o1DHcW7kUZR6OO4BAAA8R4AFALdAFda3GAsUo0g0pgg7EAIAAHiOAAsAboEqrJRQx3Fu4lGUuj+m+goAAMAGBFgAcBtUHjEGKF4E2AAAAHYgwAKA2wh39SjUftzrbniG6isUM9a/AgAAsAMBFgBMQ+uh4q1AovoKxYyNCwAAAOxAgAUA0xCJxrQ/1OF1N4yj+grFrPv854on+r3uBgAAACSVet2BW4kPjqmj54o+6h1S+LOE4oNj1/9b3axyNcyt1LKF1Vq2IKBgZYmn/Tz1WUKRyyPX+xisLNH9tZVqmFvpad/ShkaTGh5NamQ8ef3fVZT6VOr3qaLU52HPUvJhDD/qHVR374Ail0eu/7uGuZWqm1Wu++dWetgzmNJ66IiaVy9XMFDtdVeMofoKxSzSe8nrLgAAAOAaKwOsSN+w/nDqkkJnvlF8aHzyn7k8ovBnCe0/FVOwwq9V9TP1tyu/p7rZ5Ub6GB8c0/tn+9TRHVf4s8Qtf7ZxQUCPPDBbjzww20jf0gZGkkoMjyk+lNR4Mjnlz5X6faoq82lOdYlK/ebCrHwYw1OfJtTRE7/lsSjp+jH42A9rCLMKWDwxoP2hTj21cY3XXTGi9eARqq8KQDzRr0jvJUWiXyueGLj+nn4xyXs7I1CtYKBKwWv/t662RsFAtRq+P990t63AAu72iPTG1H3+c0WilxSJxnQ10X/9/5dSn8+3qparq61RXW2NJKl+0XzV1daoYdF8NXx/flE9lMg36c+vVDVk6j2e7LPr7mufVXW1c65/ZvG+5iZ9zsUTA+o+fyGrcy79fcI554x4ol/xq6nv8Ug0dv09iCcGdHWS94LvdHdlc30lfft9xHuRHesCrN3HvtK+P319y7DgZvGhcYXO9il0tk/bVtZq28rvudhDad+pmHb/S3TafQx/llD4s4R2H4tq28pa10OY0fGkoldHNTAydWh188/Hh5KKD40rWOE3EmTZPoaRvmFtPxK5bbCWNvEYbF4y22iYCrMOtLVrc/Oqgr/4ikRjCnWc8LobyFCkN6ZwV4+6z1/Qh109ikQvOTYFruHaDciDi+vVsGi+GpfUO/K6NmMBd2+4cRynb/ik7waTDYvmq2HRPXr4oQe0avkPcmoHuen++ILCXT368Nr7n8tDlPT7+uDi+9S4pP56gInvmnjO9Zy/oO7zFxw559Judc41Lqkv+GuqbMQT/Qqf7VG465y+iMZyPh9ulv5Or180X42L6wkWb8ONcySN9yIzvmTyFqU5BsUHx/T0e59POzC4lVX1M7VjbZ3j084yDTWmsqp+pv7Dj+a6EnDEh8b0dWL8lhVXt+P3SXcGShWscH6JNKfe58YFAe1YW+fKGL5/pk+/+uMXGYWoNwtWlmjbylo9tmyOgz3LL+GzPdq6/TWvu+GKlg1rC74Kq/XgEe0p0IXr9+58Vo2LCyN8iSf61XnitD7s6lHnyTNG12sKBqrVsGi+1jUtL6ibw/RNQyR6SbvePmys3ReeWK8Z157Oui0YqLIqqPHyOL5ZMFCtVQ8tzcswa8/BI0Y3HPH5fDrS+kvVzc3t3A+f7VHnydNq6zjh6nvfsGi+Nq1rKqjPq2xNPOfCXec8r7ZOnXNL1bx6haf98Fr4bI8+7DqncFePJxXADYvm68HF9Vr10NKieEh1K15/LzUurtfDDy3VquVLi/7z6iZJKwKsSN+wfrz/kxvWFspVw9xKvbP5XsdCLKf7WDerTO9svtfRAOab/jFdGhi7/Q9O05zqEt1R5VwImA9juPtYVLuPfeXY65moCLSVyQCrrrbG6MVXMFClo3t3FOzTkUg0pjVbtxttMxioNnZxkO8BVjzRr1D7CX1w8rRVU9waF9fnXZjV/fEFdZ//XN3nL+iLaEzhrnNFsWh7XW2Nju7d4WkfbD2OJ6qrrVHLhjV5c0znU4AVT/SnQqv2E568/81NK9SycU1evK9OyZdzbtVDS7Wpualo3pt4ol8HQp3a39Zh1fdPXW3NDd/rxSJ8tketh446WmGVK8L3G9gRYK1/+1/V3Tvo+Os2Lgjoncfuzfl13AjYpFQAc/iJv3AkZHM6vEq7M1CiWQ70Lx/GcN+pmH71xy8d6NWNijXEMhlgPbi4Xj6ZXa+mkKuw/v71d9XWcdxYe+m1AEy9f/kaYEWiMbW1n7DuIncytt0cTqyq6rkWWHUX8fRArwKs1PtwTgfaOqy9gZ5MXW2NmptWaN3q5dYc05PJlwDrQKhDew4dteJzzLbPKjekb8jz6ZyTCv+9yaf3JR3mr1q+tCAf3toaIk6muWlF0YWKN/E+wHK64uVmP/uru3OexvXjfZ84MrVxMk6EbENjSV3oczYYmqhuZpmqynJbE2t720WFzvY51KMbOTGGkb5h/fXvzznToUm8s/leNS4MuPb6NjJdgfXK049r64vmpiwWahWWF9VXr/zkcR1o6zAWKORbgJVPF7k3a1xcf72CxaR4YkB7Dh4pqqqqTJgOsPLp5uBW0jdxtk5zsj3AOnW2Ry+/8a7n09UmU2hhSSGdc+n3plDk83d6uiqrUM6VSDSmPQeP6oOTp/PuPLH9+8hFSU8XcY/0DbsaXkmpgKzpvhlZTzN7/0yfa+GVlFqc/P0zfTktSv7llVEHe/Rd0aujumd2qfy+7EKs98/0uRZeSakx3HfqUk5B5Y/3f+Jchyax/chFxyrFMLnGxfVqXFxv7IIgnhjQrrfe0ytPP26kPVP2HDS77lVdbY2aV6/QrrffM9puPsjni9y0cFePwtt7jN8cxhP9OtDWYaQtTC18tkehjhNGKzrdFInG9NIb7+rNfzyqN3c8WxA3cCZcjMb08uvvWv1ZFuo4rnBXT97fEEaiMe0Pdbi+npgpkWhMew4dUajjuPbuzO9zLhKN6SXLz4PbSW3wc1yhjuPavG61NjWvysv3JB1c5fN3U/r7qPXQUb3yk8eLqiLL+VW6M/B7l8MrKbVo+B/Cl7L+/d3Hog72ZnK/+ucvFR/MbvpffGhco+PuFtGNjifVN5j9guYmxuUfSWsAACAASURBVHD3sWjWY/j+mT7HpzbeLHJ5RPtOZX8c4tbST3NNh0mhjuNWPknOViQaM/5l3rIh9VS1EC60nRJP9GvXW4e1dftreX2hO1Go47jWbN2uXW+9x3tdBC5GY9r64mvauv21vL5BmMrF3lSl6v4QIentHAh1aOMzr+bFZ1n6hjAfP6ci0Zj+/vV3tWbrdh3I86qryaSrw1sNP2RzSuvBo1qzdXtenAfTtb+tXVtffC2vPgfjiX61HjyqDc+8WjDfTZFoTFu3v6aXXrezutUNngVYkb5hV6tyJgqd6csq3DARbEipkK2jJ57V717qd37dq8lcznJ9LZNj+H6Wx5OJgE1KrbEFd9XV1mhd03Kjbe56y9wuZW7zqvqqWL5wp+NAqENrtv6d9hdo9dD+tnZtyJObWWQuHb6uLbAbtansevuwdr1F9ehk0iHmr98+nHdhyv62dm189tW8+G4qxBvyW9lz6Iiee3VPXrw3Uipc2PDMTu05dMTrrrgiEo1p19uHtWbrduvfk/DZHm145lXtOXQk7z6TpiPUcVxbX3xNofbC/xzwLMA69Zm5AyfbgOj9M9+40Jup2so8fBkYcb/6Km08KQ2MZN6WyTHs6M78PT71acJIwCaljsPwp+5NRy12kd7UF+dTG9caXZeq0+LdfDLhRfVVumKuEC8kMhXJ45u9TKX/1nx9ko7JFXr4OpX9be3a+MxO62/eTDp1tidvqq6mcrE3pie3v2b1+9px8s9as/XvCvaGfCqdJ09r64t2vzeS1NZ+XBueebUoNgyxuUJuYlW77cdMrvK5ijQTngVYHd1XjLb3UTSzXQ7jg2MKGwzZwp8lMq4SSwybXX8/MZxZ//JhDN1c32wy7eeyq7TD9NXV1mjTulVG27TxCztTpquvHry2Zpkkxa8OGG3bNp0n/1yUVUl7Dh3Ji5sQ3Fo+V9o45aPzF6wPO0xpPXhET25/rSCOhYu9MW18dqd1AUT6nPvpq60FMc7ZSD8IsfWcaz14RH//xrtF9/7sOXTEqmqs7vMXtOGZV4vzwUqeVJFmw7sphIaqXtIyrXz5qDezwMsJmY7J8Gj261JlY3gss8DMizHszrDNU4YroqjAck/kq28/pDc3rzZahRXu6snr8CF8tsd49dUvCmzx+2zteuuwnivim5BwV4/VNyG4tXxa38ht+VCx46akpJdef1d7DO6CaMKVqwN6cvtvrQmxOOe+ZWuI1XrwSMGdB5lIvy9enzMHQh3aUMTVsRd7Y3rSgvfBDZ4FWN0ZVkTlKtPKnMjlYZd6MrVMA58Rs/mVRjJcBsuLMbyYYQgYz2Fx+myYDm6LVTBQRRVWBkxuuy5JzU3L83LXGifFE/2pxU+L7KngZGy9CcHUqLqa3MXemH76D3uKbkyuXO3Xxmd2KlSgazBduTqgn/6Dt+suXUn067lXWznnbmLb90exh1dp6bW/2jxaj2nXW4f167cLZ43abF2MxqwK4J3i6S6ENvMiaIgPZZYQmVr/Ktv2vBjDTEMz033MdqdE3N7N09CowpqezhPm1/Bq2bj2hn+eWD1XDNIX3Pl4vLjFtpsQTK0Q1jdy00cfX9BP/6HV624YklTkq1TlWaHdIN0sXWHnRXj00fkL2vjMq+o8+WfjbeeDSDSm5171Pjg+EOogvLrJ37/xrtFdCuPXgl4eDn7LtipSJxBgWaTQwo1gZYnXXbitYCWnQKG4+cKFKqzp2WX4CVWxV1/ZUlpvI0Is+xXS+kZuOnW2pyh2J0wmpedebS2az7NUhZ3ZcPJAqENP8rl4W93nL3h6znWfv0DFz1R8ZppJV7YT9H5XoYVYnt29180qM9pepmGK6f6l2izP6OdL/YY+EbJsL1hh/vCyPTSzvX+FZnPzaqNhSb5VYYU6jhu/KL65+qqYENDcHmNkp0Jd38hNB9rai+JGqtjCzFNne4xVlLQePMKUwQyEOo4brfZJS1eA4bvqF83X5nVNrreTDq8KJaBxQzrEKoTrK88CrIbaSqPtzcswHApWmA8a5mUYmpUZfvdKMxyS+2ur3OnILdvM7LgyfRyabq/YBQNVatm4xmibL73+rtH2cmG6YqyYq68IZqYvEo3l1XlU6Ap9fSO3JCW9/MYfCB8K0G/eOezqjTKBcfZaDx0x/j275+BRvtun8NrPnzLSDuHV9KRCrPyvovYswFp2b8Boe6vqgxn9/LKFZvsnSQ1zMws3ykvNvn0VJZlVYNXNNl/FlukYzjPcx4a7CLBMa25aYTQ0iURjCnm0aGUmqL4y67lXvV0AON+Eu4pjCla+iEQved2FvHTlar9eJowtOMmk9PIb/5eLDUjd5z937/ULWDwxYPQBSKjjuPFdnPNFy8a1Rq6/d73lbqBcaC72xvL+e8mzAKupfqbR9jINpIKVJWpcYG4B6MYFgYynlwXKzU4hDJRn1r98GMNVpo/DBeaDUUivPP240fZaDx21/umG6eorUxcyNuLiKjv729qznpJbV1tjdBOHQjZzRrVaNv4br7uRtzr/ZH6jDLjvo48vaI9L36M+n/TTJ9a78trFINxlcponVXKTqaut0VMb3J8B0XrwCAu2Z6Hj5GlPpts6xdM1sEyFG488MDurNa2aGsyFG488MDvj36kq88vUMlilfqmqLPPGbB/DZQsDxtY7q5tVpqYMKwHhjMbF9WpcXG+svUg0pv2hTmPtZcp09VVdbY2am5Yba88mXFzl5qXX3806DG5YNN/h3hSvTWtXM55ZSlXr/MHrbsAFB490uPawyvR1S6FpPXTE9QeJXlSy54u9O591vY3Ok39mmm0O3vxH89NtneLpFmzbVtZa3c4jS2YbWQurblZZVuGLJM0ytCj4nOrs2smHMcz29zJv5w4j7WByptfCOtDWbm0Vluknhpuam4qy+ioSjVl5cRUMVKt+0Xyta1qudU3LtWndKrVsWHP9nx9cXK96S8KKSDSm1oP/lNXvPr9lPVVYDqEiJDcXe7/Oi6nlyMyVq/2uTXX2+aQnDVSwFKp4YsD1B4k2Vl/dXVtzw/+8+A40UXEficasXGYgfX318ENLb7i+2rRuldY1LdfDDy3Vg5YE01euDujlN/JzKmGpl40vWxhQ44JqhT9z7yYv2+orKTUFbtvK7+lX//ylw726US5B3uyqEsWHxjQ67mCHblLqz35R+3wYw20ra/X+mT5FLo842KMb1c0q07aV33Pt9XF76aeZpqZypC+enjIcnN2OF9VXJnagsU16RxwbBAPVWtf0kBqXNKhx8X0ZXdCGu3rUeeLP+uDkGc+e1O1va9fDyx/IuBqhYdF8/fbnLXrp9Xfz9imjTUx/hhaaN//xn9S8eoXX3YDD2jpPqGXjGldu2BuX1Gtd03K1dZxw/LWLwYG2dm1uXuVKiGND9dWDi+/Tqod+oIbvz1ddbc0tj8FINKZINKbujy8o3NWjD7vOufKQ1dTUQVu+14OBaj380ANqXJL6fszkc6D7/AV1nvizwl3n9KFH36unzvYo1H48776bPA2wJOn1Rxdo/dv/6kp4UDerTD/70d05vcZjP6xRR88V10K2pvpgThVAfp9UO6NUkSujDvbqRrUzcjtM3B7DxgXVOVdR/XLtPD2x/xNnOjSJn/1VbschnNGycY3CL5r7knDz4ikbqWoWw2tfFekT5FYLdiV6cPF9emrj2pymoaRDixe2/I3CXT3ac/CoJxdarQePqnFn5n9H4+J6Hd27Q6GO4+r++HPFEwPT+r2e8xeMr1v28ENLFQyY2b03m8+kdBXWxmd3utCj6QkGqnV37Rw1LJp/fZ2z4IzvjlmkN6bu8xcUicbUY8n6c5Ho1wp39TAtbIKb38+6uTfe/MWvDiie6E/deJ+/YM17OVEymVTrwaOurLXpk/T8E+v1wckznlZ01y+ar4ZF8xUMVKmu9s68OefcfJDYeeK04685HcFAtTY1r9LmdU0ZfY6nA67GxfXa3Jx6qBjuSoUXTh5fJtacPRDq8PxBihPXVw3XzivpWsX+wSOehNVv/uNRrVq+1Jp7lenwPMAKVpbo9UcX6Mf7PlF8aMyx162bVaZ3HlukYGXusyR3rJuvH+8773jIVjerzJFgo6rMrzuqSvTNgHPjl3ZHdYmqynIfQ7eCyrpZZdqxLvepLssWBvSzH93lSqXYtpW1rH1liWKvwmpr92Dtqzx7quOESDTm6bpXTlxYTaZxcb3e2lmvzpOnteutw0aPpXBXT043/81NK6Sm6R+Lew4eMR5gvfDE+u/cwNvm/u/P16Z1TTpg8Pi+u7ZGzauXZ70mUCQaU7irx/NQOZmU3jx0VI07ijvASleErlr+g2uhyPRvmuKJfoW7zl276fYmQJhMW+cJPb/lUVduAGfOqNamdavUanA6ei7vkWTPOSdJH5w87fg1WCQa8+T4e3DxffrF0//OsWq/iZ+poY7jCrWfyOkBVXPTctcDeq+XZqirrdErTz/u+N9ZV1ujXzz979Syca1++uoeo9cfF3tjVt2rTIena2ClNcyt1OEtf+HYYtrp8MrW13PjNedUl+iOKmfXmrqjukRzHHrNYGWJ9WP42A9rHJ/mt21lLVMHLVOsa2FFojGFDD/ZKdbqKy+nDj6/Zb3e2vmcqxeRqx5aqqN7dxg/l2xcb6QYtWxY4/qT2mAgddO+d+ez+qe9O/TUhuwD2dQmEit0dO8OvfL0456uxxfuOqdIr/fTXrxQV1uj559Yr6N7f6kXtvyNGhfXZ3wcBQPVWvXQUr3286d0dO8OrbNkc5BkMunqekubMqy2yUZqKtRS7d35rP7lwG+yfo8ku8657vOfO/7Q0ovqn5aNa/XWzudcG8vmphV6a+ezWZ9XdbU1atm41oWe3WjPQe92+d7U3KRDv/u5q9dX82prdOh3Lxq/vnJzQwo3lLz88ssve90JKRVwNDXM1Ee9AzlV6TQuqNY7j31fd+Y47e1m6f6d+jShWCK36XqNC6r1+vqFju9+V1Xml98vDY0mlczhdfw+dwIxp95jyb0xXLYwoGBFic5cHNDwWPajGKzw65mmuXpixZ0O9i6/RKIxo6Wwqx5aqobv33Pbn6urrTFa4j48MqrysnI1LvH2qfuv33rP6NSv9NOk6eg+f8Ho08zm1StcuwgMdRz3pAQ8GKjW//ny/6a/XtlorM3GxfUKzqjS//tf/j8j7UWiMTUuyWyNiWyl1wgxafO6JgVn2F/CX1FepqHhEVfGJxio1v/66P+k//35J7Rq+Q8cf68bFt2jh5cvVc+1qU5eCAaqXfs+8OK4vZ30e/qLpx9X45J6VZQ7c90WDFRr1fIf6MEl9dfW85ne9GC3nPvkgh7965WO/X0TVZSXqby81JXP2onnnBvfjQ2L7lHz6hUaGh7R2Z7zjr72dAUD1frv/7v/xrHX23PwqD652OvY691Oy8a1RtaVkr49r5pXr5B8UuybK7c9t1LXH/9ei+bf5WrfOk+c1v/xh//H1Tam8srTj+vH//Z/duX8nkzj4no9uKReH5w8o+ER99ZoThsaHlHN7Fl6oGGR6205wYoKrLR0Rc0v187LOJhoXFCttzff69i0wan6d3jLX+hnP7orq+AkWOHXz/7qLscrkSaaXVmie2aXqbrcl9XvV5b6dM/sMs12OLxKy+U9lsyM4WM/rNHhLX+R9bpajQuqdXjLX+qxZXZPBSlmTxl4SjTRgbZ2T8voU2Gi2R2wirH6Kp7o96RKKBio1t6dz3qyts7mdauNrHmRRhWWHTatW+3ojW4wUK3nt6zXvxz4jZ7asNbVapN5tTV6c+ezWufR9OYjncWzIPf9i+br0O9+7up7umxxvd7c8aznO93Gr/YrfNa98HDT2tWOfsYHA9Vq2bhGR/f+0vVzLhio0gtb1huvKklz+vrH5BpfphZFn6zdF55Yf9squrraGu3d+ez1tZzctOvtw663MZlXnn48tQyBYenPNlNrU+XTd5Pna2BN5pEHZuuRB2br1KcJhc726aMvB9QdHfrOzzXUVmjZvTO06r6gli0MGOvfYz+suV6Nte9PX0/at4kaF1Rr2cKAHlt2p2vh2kSlfp/uDpZpYGRc8aFxJYbHNX6LYiK/TwqU+xWs8Duy3tV0PPLAbC1bGLB2DOtmlemXa+epeclshc72qaP7iuJDU2/1GKzwq6l+ppqv/V2wW11tjVo2rDG2pkQ8MeDaIq/TscfwTf+Di+uLcu2rA6EOT4JKUxePU2luWmFsg4BwV4/iif68Wmy0EM2cUaU3dzyrjc++mtO0g2wXJM6VT9Ir//5xfdEbMz4dKBKNKdIbs369s1xtam7SC0+sN9LWvLk1Ovjai3py+2+Nr12XllRqGs6q5UtdeX2fT3r5J4/rye2v5fQ949U5J0lPbVirSPSS2trNPlCLJwYc20AhvZufKTY8DGxuWqHmphXXF+lPf+Y3LLrH2LWHV7s+Pr9lvSfhVdr935+vn255VC+//q7rbaWn2+bDRiNWBlhpyxYGbggDIn3fltDVzTZTwjeVulll14O2yOURffTlgCJXRhQfTC2kHqwsUd3MMi1bOMNI4DKZqrJvA6mBkXGNjkkjE5KsMr9P5WU+VZRkV62Vq3wYw/Qx+Mu183Tq04Qil4dvmP5YN6tM98+tUt2scs/6iOxsbl6tA22dxuZ8hzqOu7bV9q14UX2VTwtBOsn0GmNS6uLKy/Aq7akNa/Xh2XNGwoB8W2y0UM2bW6M3dzyrJ7e/ltXn6KbmJj1lYD2tqfh80m/+Y4vWPvl3Rtf+SCaT6jx5+vpOYIXo+S3rtXmd2b9v5owq/eY/PpVzwJOLcNc5VwP2iedcNn9jc9NytWxc62m12gtPrNeHZ3uMv0edJ047E2AZXMMuGKiy6mHgxF3zTPOi+rpl41rjn2OTeaRphXo+vuD65inJpHQw1EGA5TSvQ6up1M0qc206m1OqyvySxV3MhzFMhalUVxWKYKDK+M4+L73+rvbufNZYe5L56isTu9DYyIung81Ny624uEr77c+f0pqt210PAw60tRNgWeL+78/Xwdd+ntENtdM7aeVi5oxqY0+3J/qwq6dgAyyvpttIqYAnXaXkhWQyqVD7CVff22xCLLd2ps1GMFClV55+3PhmJ06tDWeywq9+0e3XdS0GnSdOG7++8mrq5lRaNqzVByfdH4fwf3U3hHcKJSMAitbm5tVGP6TDXT1Gp6t4svaV4fXFbGH66aCpHX8ykQ6F3ZaeDgI7zJtbc32dlPopns7XL5p/fVdBN3fSykbzquXG+/Phf7VroXWneBlepS1bUq9NHgb7//lP7m9IMvGce3CKUOru2pobzjkbwqu0xsX1xvvTff5zRx6umKzWnFc7x1hbNnO78mgyph82387MGVV6+SfuL0Ny5Wq/Qu32r4WVVxVYAOAkL6qwWg8eVeNOMxduXlRf2XRjaooXTwdbNpifjjodpqbmOjUdBM5Jr5Mi6YbzwcbjdCKfz6d1TcuNfg/EEwMFtw6WDeFVWsuGNWrrOOHJtvDd5y8Yq2DI13NOSk0hNv0govv8hZy/N7zckKcYRaLm1ym09Vo2Hfy6PR7/+U/2T3GnAgtAUSvUKiyqr8wJGR7nutoaq9bFmMhUFdYHJ92vckD26mprrv8vH5iu2EkmkwVVRdiyca014ZWUmhpq4nNoMvFEvycLyefbOde4uN74NKXuj71Z4B/ZM/0gVrL3Wtbnkx5+yJ1NIiZKh/A2I8ACUNSCgSq1bPw3Rts0Md3sJcNrutj6xMptkWjMeJhiw65Et9K4xP3KqPROboATgoFq4xV9hVLJ0bJxrVVrxaRt8mCXPSm1EHLnCQL22wkGqvTg4vuMttlz/nOj7eUq7NC6XfnsQ6qvbrCuabnrn2tehfCZIMACUPQ2r1tt9AvL7Sqs8Fmza21J9j6xcpvpcQ4Gqlzbpt0pjYvrdbeB86mTKiw4xOfTlOt3ueWLAgiwfD6fmlct97obk5o5o1rrmrzp238p0DXOnGZ+HayLRtvLlRfT52wS9mC3StuvZYOBatd3gsyHEJ4ACwAktRje1czNKqxdbx927bUnY/sTKze1GV7sctVDS63fHUZK9dNt+fY0HXar/77ZAKvnk/y6mc5HJqbbTCYfpuDYoMHwOZeP74npDWJsEuowe3314OJ6669lTU0jtD2EJ8ACAKUWQzX5NDDc1aPOk392/HVDHceNlv7auBueKV7shrfO0rWvbmbixoTpFXBSw72mb6YHjLZXjBoX3+dR4J+0fgqODRoW3WO0vXycthvu6tGut97zuhue8GL6YD4wMfXW9hCeAAsArjFdheXGRYnpp3XrVq+w/omVW8JnzV5c1dXW5M3Oeyb6GYnGrL7AQn4x/TmWjzfT+Sa9w6RpySQLhk9HMFBlPGDMde1EL6539re1F12I1X3+c+OfkSbW73RCw6L5Bs6bpCLRSy63kT0CLAC4Jr1FrSmRaEyhdud2sAt1HDf6hV9XW5M3T6zcYLr6qtHwgre5qKutMXJjYvMFFvKLFzfTBLDue9Cj0J8pztMzI1DldRcyUjfXmwd2+9vatWbr9qIJvk1XMObD9MFv+VRXO8fVFlIhvL2fYXkTYEX6RvRR76DCnyYU/jSh+OCY110CUICMr4V16KhjNzGmq69aNqzJoy9855kub/fqRixbbl9gSXZfYCH/mL6Zjl9lGqHbvAr+WeNseuYZvoaI9+d2zgWrvVuDMhKNac3W7Wo96Nx1o61MLyLu9sLojjK06YjN06BLve7AVOKDY+rouaL3z1xWd++A4kPj3/mZYIVfjQtnqKk+qEcemO1BL6XR8aSuDic1PDqu4dGkxpKpf19WIvl9UqC8RFVlPpX6fZ70Lz44po96B9XRE1fk8oi6e1Mf3MHKEgUrStQwt1Kr64NqXBjwpH/S7cewsqxEM8rtHsNlC6vVVD/Tk/7BWekqLFPVNZFoTPtDnXoqx+DMk+qrPFmPyQ3xxIDxL/eG75tdLyRXd9fWuD5GNl9gAfBeMFClu2trjO/6WCyVMvkm1+DH9MLzk9lz6IhCHcfVsmGNGpfkU+XQ9PUY/m63fXfniXySkWrhqxaHpFYGWLuPfaV9f/p60tBqovjQuDp7rqiz54p2H4tq28paY0HWwEhS3wyMamAkOel/H73W9cTwqCSpqsynYEWJghVmit7ig2Pad+rS1ON4eUSSFP4sof2nYqqbVabGBQH97crvqW52uZE+ZjKGsQRjCHNaNq5R+EVz1TUH2tq1uXlVTl9IXlRfFTPTlT/BQFV+PSFUqs9us/kCC4AFfD41Lr5PbR1mA6V4YkCR3phnU87gjvT0eK8roCLRmF56411JqU2I1jUtz5s1nG4nnhgwHgBzffVdNleRWhVgRfqG9fT//bm6ewcz/93LI/q7Ixe1+1hU72y+17UAYXQ8qejVqUOXqQyMJDUwMqrEsE93BkpdrSbadyqm3f8SvW0AOFHk8ohCZ/vUeS6ubStr9dgy96Z+5DqGlwd8umum3WP42LIabVv5Pdf6B3eZrsKKJwZyqsKi+so805U/9YZ3a8oXF1kDC8At+OTNwttSMufparDTww89oLaOE15347pQx3GFOo6rrrZGDz+0VM1NK6yoFMuWFw8Ivdmt1G4275RrTYB16tOEnnnvs4wCg8lELo/ox/s/0e8eXaD751Y61LuU+NCYvk6MazyZWfAyUWI4qaHRUd0ZKFGg3NlKovjgmLYfuajOnnhOr/GrP36hU58mtGNtnYKVJQ72MBVCfRkfzWkMh8aS+rxvRLUzSl0Zw//0z18qdKYvp9fYfSyqj3oHXRlDmPHK049rzdbtxtrLtgornuin+soDpp8OftjVo//2kW1G28wHpqcFAcg/d3tQBZVeBDnfKjtwe41L6q0KsNIi0ZgOtHXoQFvH9TBr1UNL864yy/QDwnhigOurSdg8DdqKRdy7ewf0xP5Pcg6v0iKXR/TE/k/0URaVXFOJD40penUsp+AlbXQ8FeLEh5xbiD4+OKYf7/8kp/Bqos6eK/rx/k8cXSw/PjSmyJURR8ZwPCnXxjCX8GoiN8YQ5tTV1hjdfjtdhZWpA6EOqq88YHp9BgBAdhru9SZEsrmCAdlb9dAPvO7CbaXDrK3bX9Oardv10uvvqvPEn73u1rTYHJwUG6+nyk7F8wAr0jesp99zvlQwPjimZ977TJG+4Zxfa2AkqehV50OI6NUxDY3mHuZI0vYjF7Oaenkr3b2Djr03Q2PujWGmUxGnYvsYwrwXtvyN0bLiA23tGX1ZRKIxhQw/BaT6KsXWL/Viw4UugNsxsV7MZPieKEzBQJUa82hX4NS14nE99w+t+h83/dT6MIsHhPawdadczwOs7UciilxbDNtpkcsj2n4kktNrpNdrckuu0+kkafexqGOVVzcLf5bQvlO5rTEyOp7Ul1fcG8Po1dzHcN+pmKtjuPvYV668NtwVDFRp07pVxtrLtAqrrd3s2lcPLq6n+uoadr8DgPzg1S5tTHEuXC057hztlXii/zthVvisuU2LpoPgF7fj6RpY75/pU/izhKtthD9LKPxpQo0LA1n9/qX+MY2OO1PhM5nR8aT6Bsc1pyq7dZIifcOuhyO7j0XVdN+MrBfGNzGG3/SPqyaQwxj+S9ThXt1o36mYHlkyi90J89Dm5tU60NZp7At1umtheVF99cKW9UbbsxXTQoD8EelNhQiRaEzxRP/183di+J8OGq5ybhcsG3aOKxbTOefiiQFdTfTnbRWt6c1+3JAOs9ILwDcurtemdU2eLwAfYXMWS9i7EYWnAdbuY+6GBmm/P/aV3skiwBodTzq2LtetXB4Y0+xKv/y+zHfV+72Byp744Jj+EL6k//CjuzL+XVNj2Dc4pllV/qx2Jvz9sa9c72N8cEy/P/aVdqyb52o7cF66Cqv1kJmF0qe7I6Hp6qvmpuUsRntNJPq1113ABGxVX7wivTF1n//86W8pfQAAIABJREFU+rbrX0RjikQvXbtxHiCwwHUzAlXGj4fIV4V3Iz7ZORdPDKj7/IWiO+daNq5R+MX8DbAmSk8zDHUcV8Oi+dq0rsmzivtiOoZsZ+t74VmA1f3loGtTB28W/iyhyOUR1c0qy+j3LvWbWXx7PKmsqrDig2MKnXVmwfHbCZ3p09/+D9/LeEe9vgH3w6u0K0PZjaFbUwdv1nkurvjgGLsS5iEbq7CMr321ca3R9mxm65oAQKFK3zR3n7+gL6IxhbvO5W3lBrzg08xAlb7wuht5JH3ORaKX1HPt3ItEL1l7Q+uFdMXSgbYOr7viqO7zF/TSG++q9dBRNS6uV8vGNcam4fK5junwLMDqOHfFbHs9V/TYssxOPqcWB5+OeBYBVoeh4EVKBT0dPXE98sDsjH4vMWwuwMpmDE99mnB0J8NbiQ+O6f2zfRkfh/CebVVYoQ7z1VderSEC3E5whjcLNMM94bM96j5/QR929SjcdY6bZuTM5IYs+YhzLjtPbVyrto4TBTleE6uymptWGA2ygFvxLMA69am7a1/dLNPd5YbGxl1dt+lmo+NJjY4nM5oCZ3oMw58lMgqw0n+TKdmModtrsN3M6V0OYc7m5tVq6zhhLDg60NY+ZYDVetBMkJZG9dWNWAPLLtyY5r9Ib0ydJ0/rg5Onr01FKrybQRSfLyxeyyd9zhFY5SYYqNJvf96irS++5nVXXGUqyOI4tIut11eeBVimpg+mZRr2jJopyrnB0GhSpeXTD19MhyEfZdjeyJi58CptYDipYOX0xzDTvylXpkNHOCcYqFLLxjV66fV3jbQXTwwo1H78O2sQhM/2UH3lsXg/F1hArsJne66HVkwbAdwXPtujD7vOGa/iLnTpaXamHy56IdRxXOGuHrVsWOPKGlks0WATn4LVdla4F02AlakRg5VDaeMZzrYzPYbxwcxSPS9CwLFkZu+b8TE0sKA93NPctEKtB48au/Br6zjxnQsE1r4CvkW4ml/SoVWhTrkBbNP98QV9cPI0oZXLntqwVpHoJbW1H/e6K66LRGN66Y139WHXOT2/5VFrq3SQO1s3yPF0F0KbZRomOSHT0MzU2k1pmYY9noSAGTYZHzT7RmcaAsI+rzz9uLFS8XBXj8JdPWpcXC8pddHQ1mHu4qhl41oCAljtbo5P68UT/Qq1n9AHJ0/n9ZbzQL6IJ/pTQXH7Cc45g37xk8clqShCLOnbaqy9O5/lWrEABQN2Vl9JHgZYwYoS4wGM7TJYukmS+THMdPc8v9+ljjgoWOnnOERGGhfXq3FxvbGLwgOhjusBVsjgRVFdbY2am5Ybaw/IRsOi+V53AVOIJ/p1INSp/W0dVFuhKN1dO8doe5xz3vvFTx5XsLqq4HYmnEokGtPWF1/Tb3/+lCPfx7ZW/BSjeouvr7wLsAwHB3WzyjP6+bJM0yQHlJVk1qb5MSzL6OdLZH4MK0rNt5mJTMcQdmrZuEbhF80EWJ0nTyue6FcwUK02g9MH161ewRO1KQSrKZe3RTrchT24iQbM4pyzywtb1is4o6oo1sSS0iHWb/XK049r1UM/8Lo7cMjDP1zqdRem5FmNzLKFAaPtNdxVmdHPl3uQM2Sye54kNdRm9jflal6GIaAXY+j3ZTaGpo/DTINU2CldhWXK/lCn0cXb62pr9NSGyXdAhN1l1cWkrrZGq5bbe4FVbOKJfrUePKo1W/9Oew4d4UYacBnnnL2e2rBWR/fuKJoHgfHEgJ57tZUpqwXC5/NZfX3lWYDVuMDsE+xlCzILKipK/BlP6cuF35d59dCye82GL40LM3vPvBjDqrIMQ8C5ZkPApoag0fbgnpaN5gKeA23tRhdvbyG8uqXgDAIsGzy/5VGvu4BrOk/+WRueeZWbaGACN3fwOnW2h3POcnW1NTr0uxe1aV2T110x5rlX9+T0sJUF4e3w5IY1VoevngVYTfUzFazIbE2lbNXNKlNTfebBQaDc3PBk01ZT/UwXeuJse7aP4SNLZrvQk6llGqTCXiarsOKJAWOLt9fV1riyNXIh4QLLO8FAtR5cfJ/27nyWqQoWuJLo13Ovtuq5V1vZ4QwWS+qiB8enG9W68US/dr11WE9uf41zLg8EA1V6Yct6Hd27Qw8WwZT3eGJAW198LetQlQp376Svr3778xbrZ2F4uAZWiR55YJb2nbrkelvZThMLVvgVHzKzS102YV7drDI1LqhW+DP3n7w0LghktX6T7WMYrCwxOoamK77grue3rNeGZ3Z63Q1HUX11e14EWK88/XjRr/dk89PAYnTqbI9efuNdbqKBKTi9S+pH5y/opzlWuMAbdbU1emvnswp39WjPwaP6sICn2kWiMbUe/Kesq6SDgWqjVYUtG9YU/YPbYKAqrx7OehZgSdJjP7xT75+57OpC5HWzyrRtZW1Wv1tV5ldVqU8Do0mHe3WjyjJfxlPf0ratrNUT+z9xtkOT+NuV38vq90yNYak/8+mDaabG8JEHzFZ7wX0Ni+ZrXdNyo4uru4nqq+nx5AlhkgAH9jgQ6tCv3z7sdTeAafvCkwos524ID4Q6tOfQUaYL5rnGxfV6a2e9us9f0P5Qe8FcP95sf1u7Hl7+QFYP3mYEqowe5/HEANdXeeb/b+9+Y+sq73zR/7adf7bZkMaMU5zQTrg3caUJUA2hCTqno8Y5czWaJp4j3TKHBC6VCpT0SLe0FOboAnMpbWmPzjCljHSmSaF9gQrkinlTB86bc0mQ0BVwcKUCeVEHnaZ/gmfiqUOCYzvBf/Z94ezghvzx3t57rWfvfD4SakvtvZbXXmvvZ33X7/k9uU0hjCiHS9UFI/P1lc92LWjlt4+113+a48rLqs8Rb/xkR1XTIyvxV9ctjw0LaHbeuYC/b75WLeA9zuoYCrCa087tW/PehZpRfTV/tX6yfjGeuJOKx556XnhFQxkdm8h8m4Wo3UOH3c+9EH/34+eFV02kZ83q+NY9X4wXn/xObOvd1JQBSrWrMK7K+FiccF01nFwDrIiI2z7TGX116kN062c6FxwatC1uiY+11S/E+lh7a8WrD57t21tXLSiku5CFVLCVLW0tRGeHY0hz6u7qbIrgR/VVZS7PuAorj+oBmKsUEQ8/8XQ8s3df3rsCFcnlAUChNgt+7H7uhdi1p7oggPR1d3WeCbK+/8DO+NzGdFd+q9TAgYNVrUp4VdeKOuzN+Q0eejfT7bFwuU4hLPtPf/7xGDxyMgaHT9bsNfuuWx7/6d99vCavtaK9NaZmSjXv5XTFspZYUYNwrLisNZ74wifiSz/9dU2nYxaXtsRPbltTk2Bn+bLWmJqOOH6yttNFa3kMf3Lbmrj5qf9Z82P4xBc+UbdwjDTc2rclnt27v6Gfjj5yz+1570JDWbdmdQweOpzZ9gywyNvfP/V89Ge0mEQ9XdXVeabfR/fpG6Vy9UOjf45zbqMnsq/AiihE9x8trJKkWcKrC11ze/e9psL4tM0br4/NG6+PoeGRGDhwMPpfeq3he2Xtfu7F2PBoZdMIs65GGxr+fabbY+GSCLBmw4M/jh++MlyTpu63fqazZuFVWddli6KlMF2zAOaKZS1xZUftDn/PymXxk9v+OO75p9/G0PHJBb9e9xWLax68XNnRGi2FiPcm0jyG3Vcsjufv/F/iSz89VJNjWA4ANW5vfsWOttixbXPsbtCB5g0ZrqjYLAywuJTsfu6Fhqi8Kna0x2UdbbFh/doodrRFzzVXR7GjPXrWrL5ok9pSqRT9+14TYDWhg7/O7mHDXN0rq/+eaKTw6qquzuhZszq6u1ZEd9eV0b2yM7q7OqO7a8VF+4D9/MA7AqyzdHd1Rl/vTdHXe1PDh1kDBw7G0JGRiq6FhVw31Rgdm6h4H8lXEgFWxGyI9Td/flX0rGyLH74yXFWAUFzaEt/etrpu/Yyu7GiNRa0RI2PVBzAthYiPtbXG8jpMS5wNsdbEQ3sPL2hVvQ2faI/vbFtdl6qhFe2t0dIS8d74dMxU2de9nsew+4rFyR9D0tTIVVjfUn1VMQMsLhU/2/dqkjfSxY72WLdmVfSsWR0911wdG9ava8o+MixcHgFJz5rVVf/uL391uCGuuZ41Vy/o7+Ti5oZZo2PjMXDgndj/2i8aKvjr3/da7Nw+/1YbeZxTg4cOG181kGQCrLK/um553PjJjvjZW+/Fz946Nq8gq7i0JW77TGfcduOVUVxW37Zey5e1xmVLWuLo+HTFUwqLS1tiRQ36NV1IOYD52VvHKg4Cy72a6t1s3DGkGTVqFVZfkzYPrbc8KtYGDhyMvpX6lJGdd4+MxI+qbMRbDzesXxubN346eq5ZrWqUeSmVIg5mON277Ko/qq6Pz/snxuMb39tV472p3g3r18aGa2ertF1z+Sp2tJ+ZZhgxOybY/9ovYuDAO7mc4/M1Wzk2/wCru+vK+u3MeQwcOBibNzVP/7Fml1yAFfFhCPCVz3bFG78Zi4HfjsXgkZPx/pzpe6uuWBI9H18WPV3L4sYFrJBXjUUthei6bFGsaC/FiQ9mYuzUTHwwXfpIRVFLIWJJayE6lrbE5UtboqVQv9DlbOVV7/YNvh/73xmNX/7LRAwOn/rIz3VfsThu/ERH9J0ODrMy9xhOTM7E+ycvfAzbFrfE8rZ8juEbvxmL/rePJXcMSU8jVmHd3USrKGapu6szih3tmb7XPz9wUKN9MlOKiN17Xsz9KX85tOrbsumi05Hgo0qZ9issW1dlFcmPXHPM09xQcWh4JJ7pfylefv2t3M+fsw0e+l2Mjo3P+1wqdrTFVV2dmS5ek3IAyEclGWDNdeMnO5INBRa1FGL5stZYvmx2KtvUWelLPauE5qu35/Lo7bk8IiJGT87E6JwQsListe4VaxezqKUQxaWtUVya7jGcew6meAxJR7GjLe7e/pfx2FP/lPeuzIvqq4XpWbO6qhV2qjVw4J3MtgUDbx2MvTk2bb9h/drYuX2rqg8WZPDQ4cwfKhUiomfN1RX/3rtHfp9rrznXXOPq7uqM++/867j/zr8+3TPr1di777W8dysiTrdAGD4aPWvmH4ZuWL829u7LLsCqNGQjX8kHWI0khbDlQorLWpIPWxxDGt2t27bEs/37k3sCdi6qrxZmXcYB1tDwiD5YZKJUivjR/5PP1MGeNavjvjtvdhNNTQzm0cC9UIieayqrwJqtePxv9dmfi+ju6oxH7rndNdckypVZO7dvjV3PvZBEkDX4q99V1NuqZ83VsTey2+/RsYkYPHTYNdAg3IkD1NjdFTSrzIvqq4XLY6DTn8BAlOY3NPz7TMPZsh19vbHnBw+6iaAmShHx8mtvZr7d2RX4Kvt+HTry+1wqHmevuQdcc02ou6szvnXPF+PFJ78T23o35bovo2MTFf38hmvX1mlPzm9/Dp8VVEeABVBjfb03JT0YLHa0q76qgQ3XZv8eN+Iy2jSWvCpB7rvz5rj/jpsz3y5NrFSKn+cw9XrdH6+q+HfyqJK5e/vWuP+Om02banLlIOu+O7+Q2z5UOiuhZ83VmZ+Xe/e92lA9bC9lAiyAOki5CmtHX6/qqxoodrRlHlQOHDiYS2UMl5BSKfOg9O7tW+PWbb2ZbpPmN/D2O7nckH5uY2WrmZVKpcwDrLu3b42dt6Q7TqH2bt22Jfb84MFcxn8nqrgOP7fxujrsyfmNjk3EwNt6jTYCARZAHaS65HR3V2f05VxK3kxuWJ99mfvel0wjpH4G3n4n0x5+fb2b3EhTc6WI2Ls/+8/KQiGi55rKGrgPHjqc6TXX3dXpmrtE9axZHU8++vWGqLrLo8r92RwXUWD+BFgAdZJiFZbqq9rKY4DVr8ydOnr5f2TXB6RQKJjOTH3kUEkYEdHddWVFzaojIvNpjo/cc3um2yMt5ab9qdu88dOZB22q3BuDAAugTlKrwuru6jRNp8Y2rF8XV+UQCO5+Lp/VqmhupVK2fdZuWL9WoE5d9O9/LZfVgG/4k/+1op8vlSJefj270Li7qzOpcQn52Lzx+uTPg2JHW8VhcC3sfi6fFXiZPwEWQB2lVIV1tykDdZHHlMxn9r4Ug4dyWB6eJlfK9Lzattl0ZmqvVCrFj3K4CS0UIrZtuanC38r4mtNCgNMq7dW2ENU+6NvRl/1DV1VY6RNgAdTRhvXrYnOGg4Tz6e7qjL6KB9bMx619W3LZ7mNPPZ/LdmleWd5IFwoR3StVX1F7eVVfdXddWXFVy+jYRKZTwnvWVNafi+a14drse3hWasP6dbn063r4iae1akiYAAugzu67M/+l4VVf1U8eqxFGzD4lVOpOLY2emMhwa4Xo/iMBFrWVV/VVROXTByMi86CteFlbptsjXVkGQ9VOFS92tMWObZtrvDcXNzQ8olVDwhblvQMXM3pyOt747VgMHZ+Md49NxomT03HZstZYtXxxfKprWfSsXBbFZa1572ZEREzNlGJ6JmKmFLG4NWJRSyHvXfoDM6VSzJQiJqcjWgqz+9hSSGsfUz+GoyenY/TkTAwd/2D2PLxicTLnH+nq7uqMbb2bMl8me+72VV/V193bPx8DD2Zfcr5rzwtxw7Vrk+9lcbbRsfHof+m1+PmBg2dW4Cp2tEfPmtWxrXfTJXm+Dh46nHtF0tDvs69agVr60Z4Xc6m+qm76YNahMeRjId9tmzddH7v3ZB9KP7P3pbiqa0XcmsM0xoUYHRuP/a+9GT8/cDAGDrwTo2OznzHl8dWGa9c1fO/JZAOsN34zFj985V9j4LdjF/3Zzesuj//jxhWx4ZMdGezZh2ZKpTh+ciYmJmfi1NTs/z5b2+JCtC9pjcuWFHIJYyYmSzF6ajomJksxNfPR/VvUUoi2xYXoWNISHUuyL8hrhGP4xm/Gov+tY2eC1LN1X7E4NnyiI3p7itG77vLM94/GcP+dfx0vv/5WLiXJqq/qr9ywP4++Cfd+d1c8+ei9uTQ7rdTo2Hg8278/ntm77yPXwujY+JneE7v3vBhPPvr1hh9kVSKPm24+NHjo3fhn70FFSqVS7N7zYjIrmv3yV4djVw43uhHVTR+81A0eOqyXY46GjmT3ebeQ8UnPmqtj88brY3+Gix2UPfbj5+PyjraqwumsXWh8FfFhb69VKzvjR99p7PFVcgFWJcFV2f6D78f+g+9Hz8pl8cT/fnV0L19Sxz2crRIaPjEVE5MfDVvONjFZionJqRgZiygubYkV7a2ZhDDHT07H0fGZcwZCc03NlGL0VClGT83EopZCrGhvjeLS+gdZUzOlODo+HaOnZi76s3kdw5+9dSx++MrwOUOruYaOT0b/28ei/+1j0X3F4vjKZ7vir65bXvf9o7GUy6Czfop0w/p1l2Q1Sx62bdmUS4A1OjYRdz34/aRDrIsNrM42NDwSdz34eOz5wQO59L/Iw8FDv8t7FzJWitHxNKpP3nj7YHzje7vz3o2G1L/v1eju6sx9wZJ3j4zEN763K7ftf/k//GVu267E0JGRiPV578VseHXXg4/rM5SjrMLD7q7OBX+P7+jrzSXAioj4v//h6Xh/bCLZSqxKx1fvHhmJLz/0eEOHWEn1wPrpGyNxxzO/rii8mmvwyMn4i398J374yr/WeM8+dPzkdPzu2PzCq7ONnpqJ37w3GcdPTtdhz2ZNzZRi6P3J+P3Y9EXDq3P97vCJqfjNe5PnrNaqlfIxnE94dbbyMXxvon7HcOjYB/Gln/46/vaFdy8aXn3kd49Pxt++8G78xX89GEPHPqjTHtKobu3bkvnN+M6EVkFsdn29N+U2GBgdm4hbvvZoPNO/L5ftn8/o2Hjsfu7F+Pxdfxu79rxQ0c3K0PBIPPzE03Xcu/PLIzTb//qbl9TNXKkUMfir/EO7/pdejS8/5EZ6IXbteSEee+qfctt++YYsryrGQqEQG65tjOqr8nSiPA28fbDpwqvRsfF4pn9f3PvdXfH5ux6KP9vxjfizHd+IW772aDz8xNMx8HZ6q9q9nFEgtK4GD9bKVe55eezHzyfZc7R/36txy9e+W/H4qhz4N+o1mEyA9cNXhuO//Pd/qdlr1SPEGj4xVVUwdLbfj03HyFjtA5hT06Wqw7W5pmZK8e7xqTg1VfsQa2R8uibH8Oh4fY7h4JGJ+NICQtSyoeOT8aVnfh2/PHKyRntGM8i6GWVf7yZTGjKWdxXCYz9+Ph5+4ukkpqP173u1quBqrv2vv5nLoDGPRsejYxPxTP/+zLc7V/eV2QawP895qfLdz70QD/9DPiFps3lm70tx14PZh0h5h1cREds2b6z64UX3yhU13psLyyq0OJ9n+/fFXU0WGA8eOhy3fO278diPn4/9r78ZQ8MjMTo2HqNj4zF46HD073s17nro8WS+myNmHxBlVTFeq5W48x5f7drzQtz73V1JvIcDbx88E45Wuz+//NXhXB88LEQSAVY9Aqdav+bwieoqhs7n2MnpGD4xVbPXOzVdiqHjUwsOhsrKlVy1DLFGxqfjWA0rp2p9DMuVV5VWXZ339Y5Pxh1CLM6SZRXW3du3ZrIdPtTXe1PuoWH/vlfjrgcfj/6XXs182x9WXD1Us2Wod+15Ifa//osa7N38Fdvzmbb47N6Xqh6M9u97Ne797q6468HH4++eer6q18k6uHv5f+TTF3B0bDwefuLp3PolNauBA7OVNftfyyYkeePtg7H969/N9YayUCg01HftwIGDuYVHjz31fPzdj5/PZdv1Up4KOZ9zcPahzkNJBFm7MnwwVKvqxLyrsCJmH6rd9eDjuVW7l8d3dz30eE2mgPbvezW5yv35yD3Amu0zVJ8pfz98ZTgGfrOwSpqIiPfm2aupUqOnZmoynXBqphT/8n7twquymVLEv4xO1WQ64Xs1Dq/KRk/N1GQ64dCxD+JLz/y65u/z6Mnp+No//dZ0Qs4odrTF3dvr3yujr3dTw85tb3R5PyWMOD397h+ejs/f9VAmQdbA2wfj7556/kzFVa0H51kP+HuuyaeX2Gw/s8qqScrTcR5+4unY//qbMXDgYDy7d19V1TBZf2a8f2I886qzX56ulujfl33AeykYGh6Je7+3q67X7OjYeDz21PNJTP1cSPVVRG36A1Uq62tuaHhkdor73sa7Ub6QoeGRuPe7lU/DyvMhU8Rs5enejD7/etZcXdPvle8/sDP3vphDwyPx2I+fz2x8NXRkJHY/92L82Y5vzE5HrXHl3N//5Plc+rcuRK4B1tCxD+KHrwzXdRsPvfBujC4gJJqaKcXROvZb+v3Y9IKrnI6OT9etZ1W5L9ZCX6Oex/Do+PSCp03+4yv/WrPKq7MNHZ+Mh14Yqstr05hu3balrk+RZhvqNs4T4WazYf26mpXML9TcIOvvnno+Bn9Vu6at5UFV+Wngs/NsIFqNcrCT1c1qnuHv0PDImaf053u/yv1Wysf+XIPPanqIFTvaMr85eO6F6qvOKlGuDtz+tUdzr364FMytNqlV/5+5PfVSCENqVX11WUe2lY/P7n0pswbez/bvi1u+9t2mXG1w13MvVv1ZkvVDprJn+/dlWnm6rXdTTV8v61YcFzL3Pax1n7O53/Gf//JDC2rFcDGlUsQ3vpfG1Mj5ynUVwp+9faxuoUHZ0PHJ+OkbR+Mrn/2jqn7/3eO1m6J2PiPjU9F9+eKqfnf01ExdqsPmml0FsBRti6tb+W94tP7H8L2JqWhbXN0xfOM3Y9H/9rEa79EfGvjtWAz8Ziw2fLKjrtuhcTxyz+116RdS7GiPJx9t3JVFmsV9d94cAwfeyb06oGxoeCSe3bsvnt27L7q7OqNnzeq4Yf266FmzOood7dG9csV5g4vRsfEYPTERg4d+F0PDR+Pgod/FwIF3Mh/slAOZ7z+wM5Pt9axZnetNV/++V6N/36tR7Gj/g9Ulh4ZH5n3sBw4cjGf691WwelIhurtWxOCh7M7b909M1H1FpP2v/yIee+qfGmqA3izK53F3V2dsWL8uPrfxuui5Zn5VGaNj4zF05GgMHDgYL5+uLkzJ9m2bF37OFgqxYf3a2Lsvu3NzdGwi7v3urrqOFQbePhiP/fj5pgyuImbP61pUMZVDkN17Xoy7b/l83VaNLoe/WQe/mzfV/mHerX1b4uXX30zm3BoaHvnI9/UN69dGz5rV0d11ZUOMr94/MRHf+N6u+NF3vp57hdt85BtgvVXf0KDsp2+MVBVgTUzO1HU1vg+3U31AtJDqskpUGxBNTM7ERB2awX90O9Ufw3pXAZb94yv/Gj8RYHFad1dnPPno12saYnV3dcb3H9gpvErAbBXcXybZILMcgJxrSepiR3sUT1cDjI5NJBPAlZWbumcxTXNdzgFW2ejY+IJu3HfveSH6tmya16C0UIi4Yf26zP/ud4+MxF0PPl7TG7jRsfHof+m1JIOPS9Hcm7yI+INgtrtrxVk/e7SioDYPq1Z2xq3b5hsMn18hZqdZ7Y3XFr5TFShP67v7lq0VBNwXNjo2HgNvvxPP7t3X9NdcrRcXmRtkbVi/Lu7e/vmajOVGx8bj2f798UwdK6TPp16tLIodbXHfnTfHXQ8+XvPXXqjy9/W5zv/Ux1flpu6P3HN73rtyUbkFWPsG36979VXZ6Mnpqqpf6l3Z9Ifbmo62xZW9HVMzpUzCoYjZgGhqphSLWioLiLI8htWEbEPHPoiB32bzAaIKi7N1d3XGi09+J3bteWHBg6G+3k1x3503N8STk0vFrdu2xM/ffuecQVGqyisnpWzXnhdi3TWrYvPGT9d1OxuuXRd792V7U1kPo2MTsfu5/xb33fmFef38upz6f51dibDh2nUV3/wMHZkNZstP51M/ly9lCw1m8/bl/1CbgCFiNizPw+jYRDz24+fj2b37Yse23tiwfl3F/f+GjsyuZvfzAwdj/+v5LMqQtd3P1b7PY9ncoLdcKb1h/dro7rpyXu/N2VWLeX4ObqtTNVnEbKuGHdt649kEphLPVyOMr/r3vRrr1qyuWahdL/kFWAdHM91mWS0pAAAZ10lEQVTeS++MVhwcjH2QXfhSzbZOZLh/EREnTs3E8rbWin4ny2NYTS+xNzIKr+ZuT4DF2XbesjX6em+K/a+9Gftff3PeS8tf1dUZmzdeF5s3fTr3lVk4t0fu+WIM6rlTcw8/8XT0/KC2zWHPtnnjp+PhqKyHVKqe2ftSfG7TdfP6nNj8mevjm/XfpfMqB1kRcWa661VdnVHsaDvzfpefXo+OTcSJ00vVDw0fTf7mgObQ17upplO9NqxfG8WO9tzO33JT6ojZa667qzPWrVl9pideuWpkaHjkkr/mhoZHMushNXjocAweOvwHIU336c/Csx9Wlj8PUxlrfG7j9XUfl+7cvjUOHjrc0EF4iv7+J89HzzWrk76vyC3AGjqe7aps/3yssmqvicmZyGD24BkzpdkAZumi+Vc4TUxmG2CdnJqJiPkHWKem0z+G+wbfr+MefdTgkZOZbo/G0d3VGbf29Z556nGh6RPnG8CQnmJHW3z/gZ2ZNiC/FJSbuu/5wQN1uw6KHW2xYf26phkcP/zE0/M6XsWO9mT+7tSnkXHpWbWyDoukFArxuY3XJVHxWb7mUrj+U3Tvd3fluv1G+Ty8/86b676NuVMJja9qp9zU/bnHH0y2JUluqxAOHjmV6fZ+eWSiop+fyqa11B/4oMIKoqz38VSFvdgb4RhmNY21rNLzkEtXueHtuf7JY9ltqtezZnXcvf0v896NpnNV1/kbo9bK5xJZTbIWhoZH4pn+/Rf9uUKhuf5uqKVaTh0sK0TEtt76TbeiNvr3vZpEX8TU7ejrzSz46FmzuiF6NjWauZWXKcotwBo9lUO6UYHJLEuHTpsuVRhgZbyPMxXuXx7HsNJtZn0eZh2YAWm4dduWTBqPXyp61qyOxzNYjbBvy01NFRbv3jO/3i3beufX9B0uJXdv31q3VeLK0whJ09DwSM0btzej7q7aLG5Qic0brxdi1dCqlZ3Jr0aYW4DFR1Wa92SdD1W8f9nOcKzK6MkG2EmgKey8ZasQqwZ61qyOJx/NZnBV7GiLz228ru7bydLDT1y8r9fll7XHjm2bM9gbaAyfumZ17Lylfp/fhULBNZewXc+92DDT9/L0yD235zLtrK/3JuOrGiiHV6lOHSzLLcDqvqKy1eIWqrissubjLTkcmcUVrvBX6YqAC1Xp5ir9e2qh0k0Wl2X7Rld6HgLNRYi1MFmGV2U7a93vJmcDBw7GM/0XX7lpx7bepJ/A1pNp2sy1amVn/P3/Vf+Kz0v5mit2tEdPTqsxXszA2wdj775X896N5N29fWuujb+NrxamUcKriEspwFpaWXDQGtmHL4taK9tm1vlQpYFULiFghcew0vNiobI+74H0GGRV54b1azMPryJmw4xtvZsy3Wa97d7zwkWb3l6qVVifOh2SNtt7XmuNcJNTC1ne1F1+Wfsl2S+xu6sz9vzggWR775VXaOT8dvT11rVCcb6Mr6rzqTWrGya8isgxwPrUymWZbu/GT1Y24G1bkn2AtbjCLKWS1fZqYUmF22tbnP3pVekxqfS8WKhVVyzJdHtAmgyyKrOjrzeeevTe3KoT7r/zr5uqMmJ0bGJeUwl3bNvSMAPaWti25ab40aOzg/hUb6ZTUIiI++64uek/w/KoSNixdUvSy9fX2g3r18aeHzwQ3V2ddesvtlCP3PPFS+pzsFLbttwU999R/1UH52vnLVvjkXtub6rv7HravPH6M997jSK3AGvzussz3V5vhdtb1FLIdIre0tbKt9e2KNu3r21x5RViWR7DRS2Vb2/DJzrqtDfntnldMdPtAenaecvW+P4DOw2yLqDY0R733Xlz7oPjYkdb01VG7H/9zRg4cPCCP3P5ZW3xza9eGs1x796+Nb711Q9vejTVvoBCRPfKzrj7lq2xLdHQYaHymk5TKER886uXxs332Q8myqsvp6Y8dT3VKY552rblpvhWgt8Rfb03nQlGOb+7tzfmODS3AOvGT3ZkNn2r+4rF0VNFxVdxaXaHp72KbXUsbcl0GmHHksr3MctjWE3FV5bnYXl7AGWbN15vkHUe3V2d8eSjX898RaPzuXXblqa7Wf/mPzx90amEN167rqkrbcrn2dnTXwqFgmmE51HuV1SIiEe+envTXRd594JZtbKz6QLzuYod7fHIPbef88HEDevX5rBHFzc7zfHBpv4srFSq4VVZ+bM9xVA0b+f73msUua5CeNtnVmSyna98tquq31vell2wcXkVQU9LIbseTsWlLdFSqDwtW97WmlnItqK98mNRXNaa2Xn4V9ct1wML+Ijurs548cnvGBjPsaOvN/b84IHknnjff8fNye3TQgwdGYmBt9+56M81a6VNua/a+W5wTCM8t3VzroFmC7E2rF8bzz2e/0OFW7dtacrvhJ41q2PPDx6Ivt5zny+pTiMs23nL1njxye/kfn7krVyxmrpyUNOM11K1+no3xZ4fPNDQwV6uAdZXPttV9xv67isWx19dt7yq320pRFyRwapxVyxrqXqq3fK2bKqwqgmHIrI7hsWl1R/D227szCQIrDZIBS4NO2/ZGk82WB+CWpvth/Jg3H/HzUmWtBc72uL7D+xsiveou6szfvTo12PzpouHNM0WUkRE3HfnzfHUo/de8L00jfDc1v3xH4a4hYj41ldvjx2JVEtW6+7tW+PJHHvtna3ZeiXu6Ou96HdcqtMI5yo/dHrkntub4rugEo1auSN4/PC9e+SeLybzGVetXAOsiIhvb11Vt9cuLm2Jn9y2ZkGvsaK9NerZampRS/Xh0OzvF+JjC/j9+fhYe+uCelktb0v7GBaXtcZXPvtHNdyjj8oirAUa34b16y7Jaqzurs74/gN3x1OP3pt8hVN5ENjIA+FyhVslN4rNElKsOj0VaD5TU00jPLfznfv339mYjd1TvilvhhCrfHzn+2Ai1WmEZ+vrvemSqu5p9MqdSzV4LPcSffHJ7zTse3e23AOsGz/ZEX/z7z5el9f+mz+/asGhQUshouuyRTXao49adcXiqqbmzbV8WWtV/anmo2NJS6xY4FTKlkLExy9fXLdKsY9fvnjBzeJv+0xn9F1bXaXexfSuK9Y9IAOaS/lpYbPfPHd3dcYjX709XnzyO7F546fz3p15a9TeGpXeSJ5Lo4YUxY72uHv75+O5Cqem7ti2uY571XgKhYgN157/vN95y9aGWtGqmjA3aztv2Rr33fmFhqyaqOb43tq3pWH+1u6uzqb/vi43sW+Gyp2ID4PHRn8YczHl77wXn/x2Mr1Ea6X1m9/85jfz3onrVs1eDAO/vXAj0Ur8zZ9/PP76T2vT22hxayEWt0aMfVCqyeuVdV3WWlXj8XNpX9ISE5MzMT1Tk5eLiIilrREfv3xRFBYYsEWUV3WszzFsr9ExvPGTHfH//c8TMTI2VZPXi4joWbksnvjCJ2Ppogy77SdiaHgk9u57LbPtbd54ffRcc3Vm26N2Bg8djpdffzOz7fVtuakhbq6KHe2xedOno2/LTTE6Nh4HDx3Oe5dq5ob1a2PnLVvjW/d8sWGv22JH+2y/lkLEzw9cvI9Unood7fHVL/77+M/33VGTc3/D+nWxrfemePn1N2N0bKIGe1hfN6xfG//1m/9nbN746Vi6pLIHm8XL2mNoeKTm11+hUIgd23qjeFntbggHDhys+7m4auWV8dXb//2Ff6arMzZvuj7pz60b1q+Nb93zxbj5L/6s4nMiD9f1XBP/27/d0FDXXLXHd+mSxXHqg8m6nMv1+v6f+31dvKwt/nn4aEO8TxfS3dUZ991xczz4H3c0xJipEsWO9vg3f/onTTm+6u7qjB19vfGf77sj/s2f/klDfL5VqlAqlWqbKCzAvsH347/8v/8SQ8cnq36N4tKW+MEXPlGX1d7GPpiJ349NxdQCQ6KWQsTHi4tqFl6VzZQifj82FaOnFp5iFZe2xJUdrQuuDjvbxORMDJ9I9xhGRPyX//7P8dM3ji74dXrXFePbW1dHcVnuhY65GHj7YNz10OOZbe+Rr96efPNPzq1/36vx8BNPZ7a9RqyciZgNhXc990L8/MA7MTQ8kvfuVKzY0R7bejfG5k2fbsjjfyFDwyNx14OPJ/e+dHd1xrYtm+LWbb11e3L+zN6X4tn+/cn97RGng9LtWxd8vr1/YiK2f/3Rmv6NhUIhXtj97eheWbsbw13PvRC797xYs9c7l0q/a/e//mY89tTzyZwftTon8tS/79XY/dyLyRzTuWp1fEfHJuKWr9X2movI9vu/f9+r0f/Sa/HzAwcz2V6t3LB+bdza19tQVdELNTQ8EgMHDiZ7Xc1HM3y2zVMpqQArImLo+GT88JXh+Nlbxyr+3Vs/0xn/8d921TUwmJopxb+OTcV4lZVEyxYVYmVx0YKnvF3IsZPTcXxiuqqQqKUQ8bG21rquwDg1U4qj49NVB21ZHMOfvXUsfvjKcFVhanFpS3zlz7rithub62lFpQRYzJcAq3L9+16N/a+9mWnlWjWKHe2xbs2q6NtyU2zeeH1TTD+4kFRuLLMeyA4Nj0T/vldj70uv5f63Fzvaz9yA1fLvf/fISHz5odqFlI0YYO3o643777i5qt/N+9poxpu7vI/pXPU4vvV4MJDH9//Q8Eg80/9SvPz6W0m8V+fSzA+YKjVw4GD0v/RqvPz6WzE6VrvZYbVWHl9t3vjp6NuyqenHV3OkF2CVlYOsN34zdsEQobzK4G03Xplppcvoqel4/+RMnJya3+FbtqgQK9prN2XwYsoh0cTkzLyCrPJqgbOrGmYz3W1iciaOjk8newyHjk/Gz956L3721rF5BVnFpS1x22c6Mz8XUyXAYr4EWNUbHRuPgQPvxP7XfpFMZdYN69dGz5rVsXnTp6NnzepLaVB1RtZP3lMayOZVdXDD+rV1//tHxyZi/+u/qMnf10gB1ro1q6Nvy0016aNSvjnMosXADevXxoZr19W1AjEFeT3QyOKai/jwM+XgocMLDhTy/v4fPHQ4Bt4+GPtffzP3yqyrujpj88brhFYXUP68Gjx0OIlphuvWrI4N69de0uOrSDnAmmvo+GS8e+yDGDr+wZl/V1zaGp9a2Rbdy/Od1zk1U4qJyZk4NVWKU1OlmCnNTuVb1DLbO2vJokJcvjS7UOhcJiZnYmKyFKemSzEzU4qpmdnAalFrIRa3zDZqzyoUOpdGOIZv/GYsBn47FoNHTsb7J6dj6PhkFJe2xKrlS6J7+ZLYvLZYl2mrjWx0bCIGD/0us+1dwh/kDW9oeCTT4KWZz5XBQ4dj8NDvYvBXv4vBQ+/WZMB/Pld1dUZ314ro7uqMnjVXx4Zr10V314qmPbbVKE9LqNXNV1k5sEo5KCz/7ftfezMOHjpc82u8PJDfcG1PbFi/Npe/f6GfXbW+aaz1Z2mxo71u1/Tc8L1WN4dXdXXGhvVro2fN1bF50/VN17fnYupxTOcqBx4911ydW0XtQs/x1D4rBw4cjMFfHY6BAwfr0muvrNjRHld1rYieNatjw7XrYsP6dZfc9bFQQ8MjpwPIwbqPr+a+Xz1rro6ea1Ynd+7mqDECLACgOuUB/9DwSAwdmf3P0bGJP2gwW74hKHa0nRkgzf73tjP/rntlZxQ72k8PotoMpKoweDrImQ0YD59+H8bP2+y32NEW3V2dUexoi541V0fxsraGvfEo31zPnoO/j6HTTY4vdDM69+/v7uqM7pWzYamgtPmMjo3PBvC/OvwH50f5/xsdmzjzuTP3s6nnmqtPh+hu7s52vmN6sWuuHFy65vIx93tidGz8zPt2oe+KiDjzWVn+p7vrytPv3+qG/M5oBOVrrDy+Kr9HQ8Mf9lKee72V3wfjqwURYAEAAACQtJJGPQAAAAAkTYAFAAAAQNIEWAAAAAAkTYAFAAAAQNIEWAAAAAAkTYAFAAAAQNIEWAAAAAAkTYAFAAAAQNIEWAAAAAAkbVHeO0D9zZRKcWoq4tR0KWZmSmf+fUtLIZa2FqJtcSHHvQMAAAC4MAFWE5uYLMV7E1Nxamo2xLqQ4tKWKC5tFWYBAAAAySmUShdJNmg4UzOlGD4xFROTlb+1bYsL0XXZoljUIsgCAAAAklASYDWZ4yen4+j4zEUrri7myo7WuGJZa432CgAAAKBqAqxm8t74dBydmK7Z661ob42PtQmxAAAAgFyVrELYJGodXkVEHB2fjvdq/JoAAAAAlRJgNYGJyVLNw6uyo+PTVfXSAgAAAKgVAVYTGD4xVffXX2hPLQAAAIBqCbAa3OipmZiaqW+4NDVTimMnZ+q6DQAAAIDzEWA1uKPj2fSoOq4XFgAAAJATAVYDm5isf/VV2Uwp9MICAAAAciHAamBjH2QbKI19oAoLAAAAyJ4Aq4F9MJVtX6oPplVgAQAAANkTYDWwyYz7qk8qwAIAAAByIMBqYFn1v8prewAAAAARAiwAAAAAEifAamCLWgpNvT0AAACACAFWQ1uc8bu3qDXb7QEAAABECLAa2pJF2b59S1tVYAEAAADZE2A1sI4l2QZKHUuUYAEAAADZE2A1sLbFLZFVW6pFLRFti1VgAQAAANkTYDW4K5ZlUxW1ol31FQAAAJAPAVaDW9HeGvVuhbWoJaK4VIAFAAAA5EOA1QS6LltU19dfdcXiur4+AAAAwIUIsJpA2+KW6OyoT4XUx9pbY1FWjbYAAAAAzkGA1SSWL2uNj7XVNsT6WHtrrKjxawIAAABUqlAqlUp57wS1M3pqOo6OT8fUTPWv0VKIuLKjVd8rAAAAIAUlAVYTmpopxdHx6Rg9VXmKtWxRIVYWF5k2CAAAAKRCgNXMykHWxOTMBSuyWgoRxaUt0bGkJdoWm1UKAAAAJEWAdak4NV2KqelSTM6UYmYmoqUlojUK0bakoNoKAAAASJkACwAAAICklcwXAwAAACBpAiwAAAAAkibAAgAAACBpAiwAAAAAkibAAgAAACBpAiwAAAAAkibAAgAAACBpAiwAAAAAkibAAgAAACBpAiwAAAAAkibAAgAAACBpAiwAAAAAkibAAgAAACBpAiwAAAAAkibAAgAAACBpAiwAAAAAkibAAgAAACBpAiwAAAAAkibAAgAAACBpAiwAAAAAkibAAgAAACBpAiwAAAAAkibAAgAAACBpAiwAAAAAkibAAgAAACBpAiwAAAAAkibAAgAAACBpAiwAAAAAkibAAgAAACBpAiwAAAAAkibAAgAAACBpAiwAAAAAkibAAgAAACBpAiwAAAAAkibAAgAAACBpAiwAAAAAkibAAgAAACBpAiwAAAAAkibAAgAAACBpAiwAAAAAkibAAgAAACBpAiwAAAAAkibAAgAAACBpAiwAAAAAkibAAgAAACBpAiwAAAAAkibAAgAAACBpAiwAAAAAkibAAgAAACBpAiwAAAAAkibAAgAAACBpAiwAAAAAkibAAgAAACBpAiwAAAAAkibAAgAAACBpAiwAAAAAkibAAgAAACBpAiwAAAAAkibAAgAAACBpAiwAAAAAkibAAgAAACBpAiwAAAAAkibAAgAAACBpAiwAAAAAkibAAgAAACBpAiwAAAAAkibAAgAAACBpAiwAAAAAkibAAgAAACBpAiwAAAAAkibAAgAAACBpAiwAAAAAkibAAgAAACBpAiwAAAAAkibAAgAAACBpAiwAAAAAkibAAgAAACBpAiwAAAAAkibAAgAAACBpAiwAAAAAkibAAgAAACBpAiwAAAAAkibAAgAAACBpAiwAAAAAkibAAgAAACBpAiwAAAAAkibAAgAAACBpAiwAAAAAkibAAgAAACBpAiwAAAAAkibAAgAAACBpAiwAAAAAkibAAgAAACBpAiwAAAAAkibAAgAAACBpAiwAAAAAkibAAgAAACBpAiwAAAAAkibAAgAAACBpAiwAAAAAkibAAgAAACBpAiwAAAAAkibAAgAAACBpAiwAAAAAkibAAgAAACBpAiwAAAAAkibAAgAAACBpAiwAAAAAkibAAgAAACBpAiwAAAAAkibAAgAAACBpAiwAAAAAkibAAgAAACBpAiwAAAAAkibAAgAAACBpAiwAAAAAkibAAgAAACBpAiwAAAAAkibAAgAAACBpAiwAAAAAkibAAgAAACBpAiwAAAAAkibAAgAAACBpAiwAAAAAkibAAgAAACBpAiwAAAAAkibAAgAAACBpAiwAAAAAkibAAgAAACBpAiwAAAAAkibAAgAAACBpAiwAAAAAkibAAgAAACBpAiwAAAAAkibAAgAAACBpAiwAAAAAkibAAgAAACBpAiwAAAAAkibAAgAAACBpAiwAAAAAkibAAgAAACBpAiwAAAAAkibAAgAAACBpAiwAAAAAkibAAgAAACBpAiwAAAAAkibAAgAAACBpAiwAAAAAkibAAgAAACBpAiwAAAAAkibAAgAAACBpAiwAAAAAkibAAgAAACBpAiwAAAAAkibAAgAAACBpAiwAAAAAkibAAgAAACBpAiwAAAAAkibAAgAAACBpAiwAAAAAkibAAgAAACBpAiwAAAAAkibAAgAAACBpAiwAAAAAkibAAgAAACBpAiwAAAAAkibAAgAAACBpAiwAAAAAkibAAgAAACBpAiwAAAAAkibAAgAAACBpAiwAAAAAkibAAgAAACBpAiwAAAAAkibAAgAAACBpAiwAAAAAkibAAgAAACBpAiwAAAAAkibAAgAAACBpAiwAAAAAkibAAgAAACBpAiwAAAAAkibAAgAAACBpAiwAAAAAkibAAgAAACBpAiwAAAAAkibAAgAAACBpAiwAAAAAkibAAgAAACBpAiwAAAAAkibAAgAAACBpAiwAAAAAkibAAgAAACBpAiwAAAAAkvb/A64XSrPCt5AVAAAAAElFTkSuQmCC;" vertex="1" parent="3eX0JZM85urcmLpb5Tb1-759">
          <mxGeometry x="544.7009523809525" y="81.5056" width="82.5528" height="43.34" as="geometry" />
        </mxCell>
        <mxCell id="3eX0JZM85urcmLpb5Tb1-749" value="" style="endArrow=classic;html=1;rounded=0;entryX=0;entryY=0.42;entryDx=0;entryDy=0;entryPerimeter=0;" parent="1" target="3eX0JZM85urcmLpb5Tb1-750" edge="1">
          <mxGeometry width="50" height="50" relative="1" as="geometry">
            <mxPoint x="389" y="285" as="sourcePoint" />
            <mxPoint x="439" y="235" as="targetPoint" />
          </mxGeometry>
        </mxCell>
        <mxCell id="3eX0JZM85urcmLpb5Tb1-750" value="" style="sketch=0;aspect=fixed;pointerEvents=1;shadow=0;dashed=0;html=1;strokeColor=none;labelPosition=center;verticalLabelPosition=bottom;verticalAlign=top;align=center;fillColor=#00188D;shape=mxgraph.mscae.enterprise.backup_local" parent="1" vertex="1">
          <mxGeometry x="452" y="263" width="49" height="50" as="geometry" />
        </mxCell>
        <mxCell id="3eX0JZM85urcmLpb5Tb1-752" value="" style="endArrow=classic;html=1;rounded=0;entryX=0.157;entryY=0.323;entryDx=0;entryDy=0;entryPerimeter=0;" parent="1" edge="1">
          <mxGeometry width="50" height="50" relative="1" as="geometry">
            <mxPoint x="511" y="288" as="sourcePoint" />
            <mxPoint x="588.594" y="286.98199999999997" as="targetPoint" />
          </mxGeometry>
        </mxCell>
        <mxCell id="3eX0JZM85urcmLpb5Tb1-755" value="" style="endArrow=classic;html=1;rounded=0;entryX=0.157;entryY=0.323;entryDx=0;entryDy=0;entryPerimeter=0;" parent="1" edge="1">
          <mxGeometry width="50" height="50" relative="1" as="geometry">
            <mxPoint x="649" y="289" as="sourcePoint" />
            <mxPoint x="726.594" y="287.98199999999997" as="targetPoint" />
          </mxGeometry>
        </mxCell>
        <mxCell id="3eX0JZM85urcmLpb5Tb1-757" value="" style="sketch=0;html=1;aspect=fixed;strokeColor=none;shadow=0;fillColor=#3B8DF1;verticalAlign=top;labelPosition=center;verticalLabelPosition=bottom;shape=mxgraph.gcp2.big_query" parent="1" vertex="1">
          <mxGeometry x="728" y="261" width="59.4" height="60" as="geometry" />
        </mxCell>
        <mxCell id="3eX0JZM85urcmLpb5Tb1-760" value="" style="endArrow=classic;html=1;rounded=0;entryX=0.157;entryY=0.323;entryDx=0;entryDy=0;entryPerimeter=0;" parent="1" edge="1">
          <mxGeometry width="50" height="50" relative="1" as="geometry">
            <mxPoint x="776" y="291" as="sourcePoint" />
            <mxPoint x="853.594" y="289.98199999999997" as="targetPoint" />
          </mxGeometry>
        </mxCell>
      </root>
    </mxGraphModel>
  </diagram>
</mxfile>
